<svg width="1440" height="644" aria-label="A chart." style="overflow: hidden;"><defs id="defs"><clipPath id="_ABSTRACT_RENDERER_ID_207"><rect x="225" y="123" width="991" height="398"></rect></clipPath></defs><rect x="0" y="0" width="1440" height="644" stroke="none" stroke-width="0" fill="#ffffff"></rect><g><rect x="225" y="123" width="991" height="398" stroke="none" stroke-width="0" fill-opacity="0" fill="#ffffff"></rect><g clip-path="url(#_ABSTRACT_RENDERER_ID_207)"><g><rect x="359" y="123" width="1" height="398" stroke="none" stroke-width="0" fill="#cccccc"></rect><rect x="543" y="123" width="1" height="398" stroke="none" stroke-width="0" fill="#cccccc"></rect><rect x="726" y="123" width="1" height="398" stroke="none" stroke-width="0" fill="#cccccc"></rect><rect x="910" y="123" width="1" height="398" stroke="none" stroke-width="0" fill="#cccccc"></rect><rect x="1094" y="123" width="1" height="398" stroke="none" stroke-width="0" fill="#cccccc"></rect><rect x="225" y="520" width="991" height="1" stroke="none" stroke-width="0" fill="#cccccc"></rect><rect x="225" y="421" width="991" height="1" stroke="none" stroke-width="0" fill="#cccccc"></rect><rect x="225" y="322" width="991" height="1" stroke="none" stroke-width="0" fill="#cccccc"></rect><rect x="225" y="222" width="991" height="1" stroke="none" stroke-width="0" fill="#cccccc"></rect><rect x="225" y="123" width="991" height="1" stroke="none" stroke-width="0" fill="#cccccc"></rect><rect x="225" y="520" width="991" height="1" stroke="none" stroke-width="0" fill="#cccccc"></rect><rect x="225" y="421" width="991" height="1" stroke="none" stroke-width="0" fill="#cccccc"></rect><rect x="225" y="322" width="991" height="1" stroke="none" stroke-width="0" fill="#cccccc"></rect><rect x="225" y="222" width="991" height="1" stroke="none" stroke-width="0" fill="#cccccc"></rect><rect x="225" y="123" width="991" height="1" stroke="none" stroke-width="0" fill="#cccccc"></rect></g><g><g><path d="M225.5,520.5L225.5,423.235L243.5066815144766,423.235L243.5066815144766,423.235L243.69042316258353,424.22749999999996L243.69042316258353,424.22749999999996L243.69042316258353,423.235L243.69042316258353,423.235L243.87416481069042,424.22749999999996L244.05790645879733,421.25L244.05790645879733,421.25L244.05790645879733,421.25L262.24832962138083,420.2575L262.24832962138083,421.25L262.24832962138083,420.2575L262.24832962138083,420.2575L262.4320712694878,421.25L265.5556792873051,403.385L271.0679287305122,373.61L276.39643652561244,346.8125L281.7249443207127,318.03L286.31848552338533,293.2175L292.01447661469933,359.71500000000003L297.15924276169267,332.9175L303.2227171492205,300.16499999999996L309.10244988864144,268.405L313.69599109131406,243.59249999999997L318.65701559020044,234.65999999999997L324.3530066815145,232.675L329.4977728285078,233.66749999999996L334.4587973273942,204.885L340.1547884187082,204.885L345.48329621380844,200.91499999999996L350.4443207126949,204.885L356.5077951002227,199.92249999999996L361.65256124721606,204.885L367.3485523385301,205.8775L373.0445434298441,199.92249999999996L378.18930957683745,198.93L383.3340757238308,201.90749999999997L388.47884187082406,201.90749999999997L393.43986636971044,232.675L398.5846325167038,233.66749999999996L403.7293986636971,232.675L409.2416481069042,235.65249999999997L414.38641425389756,235.65249999999997L419.347438752784,239.6225L424.8596881959911,240.615L429.2694877505568,244.58499999999998L435.33296213808467,239.6225L440.11024498886417,241.60749999999996L445.25501113585744,240.615L450.032293986637,242.59999999999997L455.5445434298441,240.615L461.2405345211581,239.6225L466.7527839643653,237.6375L472.0812917594655,235.65249999999997L477.2260579064588,237.6375L482.3708240534521,234.65999999999997L486.78062360801783,242.59999999999997L492.4766146993319,212.825L497.07015590200444,212.825L502.39866369710467,211.83249999999998L507.7271714922049,209.84749999999997L512.5044543429844,213.8175L518.2004454342984,213.8175L524.0801781737193,210.83999999999997L529.5924276169264,209.84749999999997L534.1859688195991,212.825L539.1469933184856,213.8175L544.108017817372,210.83999999999997L549.4365256124722,237.6375L554.3975501113587,240.615L559.1748329621381,242.59999999999997L564.3195991091314,240.615L569.4643652561247,243.59249999999997L574.9766146993319,245.5775L580.1213808463251,248.555L585.6336302895323,242.59999999999997L590.043429844098,245.5775L595.9231625835189,240.615L600.7004454342984,243.59249999999997L606.7639198218262,237.6375L612.2761692650334,234.65999999999997L617.6046770601337,232.675L623.6681514476616,227.71249999999998L629.5478841870824,226.71999999999997L634.6926503340758,226.71999999999997L640.5723830734967,223.7425L645.9008908685969,219.77249999999998L651.5968819599109,190.99L656.9253897550111,190.99L662.0701559020044,189.9975L667.5824053452116,191.98249999999996L672.543429844098,194.95999999999998L678.0556792873051,193.96749999999997L683.3841870824053,197.9375L688.1614699331849,203.89249999999998L694.0412026726058,199.92249999999996L699.1859688195991,203.89249999999998L705.06570155902,200.91499999999996L710.2104677060133,232.675L715.1714922048998,233.66749999999996L720.3162583518931,235.65249999999997L725.4610244988864,234.65999999999997L730.4220489977729,237.6375L735.7505567928731,237.6375L740.5278396436526,237.6375L745.8563474387528,240.615L751.0011135857461,241.60749999999996L756.3296213808463,243.59249999999997L760.923162583519,247.5625L766.4354120267261,243.59249999999997L771.9476614699332,241.60749999999996L776.5412026726058,244.58499999999998L782.053452115813,241.60749999999996L786.8307349665924,244.58499999999998L791.9755011135858,243.59249999999997L797.6714922048998,240.615L802.8162583518931,240.615L808.5122494432071,215.8025L812.738307349666,215.8025L818.6180400890869,208.85499999999996L823.5790645879733,212.825L828.7238307349667,213.8175L834.0523385300669,210.83999999999997L839.9320712694878,207.8625L844.8930957683742,206.87L850.4053452115813,205.8775L855.1826280623609,209.84749999999997L859.5924276169266,213.8175L864.9209354120268,238.63L869.8819599109132,243.59249999999997L875.2104677060134,241.60749999999996L879.9877505567929,243.59249999999997L885.1325167037862,244.58499999999998L890.4610244988864,247.5625L895.0545657015591,249.5475L900.7505567928731,248.555L906.0790645879733,246.57L911.0400890868598,242.59999999999997L916.184855233853,243.59249999999997L922.2483296213809,237.6375L927.3930957683742,238.63L932.5378619153676,236.64499999999998L938.0501113585747,234.65999999999997L943.7461024498887,232.675L948.7071269487751,230.69L954.0356347438753,232.675L958.9966592427618,234.65999999999997L963.7739420935412,206.87L969.1024498886414,206.87L974.4309576837417,205.8775L979.2082405345212,212.825L983.9855233853007,214.81L989.130289532294,214.81L994.4587973273942,215.8025L999.4198218262807,219.77249999999998L1004.9320712694878,216.79499999999996L1010.260579064588,216.79499999999996L1015.4053452115813,215.8025L1021.1013363028953,239.6225L1026.4298440979956,239.6225L1031.7583518930958,237.6375L1037.086859688196,233.66749999999996L1042.4153674832962,232.675L1047.9276169265036,231.6825L1053.2561247216036,229.6975L1058.400890868597,231.6825L1063.5456570155902,232.675L1068.3229398663698,234.65999999999997L1074.3864142538976,232.675L1079.347438752784,234.65999999999997L1084.859688195991,234.65999999999997L1089.269487750557,238.63L1094.597995545657,238.63L1099.9265033407573,239.6225L1105.0712694877507,240.615L1110.216035634744,240.615L1115.728285077951,238.63L1121.2405345211582,209.84749999999997L1126.0178173719378,209.84749999999997L1130.7951002227173,215.8025L1136.491091314031,211.83249999999998L1141.2683741648107,215.8025L1146.5968819599111,210.83999999999997L1152.292873051225,208.85499999999996L1157.2538975501116,211.83249999999998L1162.5824053452116,209.84749999999997L1167.1759465478842,212.825L1172.6881959910913,212.825L1177.465478841871,243.59249999999997L1182.6102449888642,240.615L1188.489977728285,239.6225L1193.8184855233853,236.64499999999998L1199.3307349665924,235.65249999999997L1205.0267260579067,235.65249999999997L1209.987750556793,235.65249999999997L1215.5,234.65999999999997L1215.5,520.5Z" stroke="none" stroke-width="0" fill-opacity="0" fill="#3366cc"></path></g><g><path d="M225.5,520.5L225.5,520.5L243.5066815144766,196.28333333333336L243.5066815144766,520.5L243.69042316258353,517.1916666666667L243.69042316258353,520.5L243.69042316258353,520.5L243.69042316258353,520.5L243.87416481069042,517.1916666666667L244.05790645879733,517.1916666666667L244.05790645879733,520.5L244.05790645879733,520.5L262.24832962138083,192.97500000000002L262.24832962138083,520.5L262.24832962138083,520.5L262.24832962138083,520.5L262.4320712694878,517.1916666666667L265.5556792873051,464.2583333333333L271.0679287305122,421.25L276.39643652561244,424.55833333333334L281.7249443207127,424.55833333333334L286.31848552338533,437.7916666666667L292.01447661469933,417.94166666666666L297.15924276169267,427.8666666666667L303.2227171492205,411.325L309.10244988864144,414.6333333333333L313.69599109131406,437.7916666666667L318.65701559020044,431.175L324.3530066815145,417.94166666666666L329.4977728285078,427.8666666666667L334.4587973273942,431.175L340.1547884187082,417.94166666666666L345.48329621380844,424.55833333333334L350.4443207126949,431.175L356.5077951002227,411.325L361.65256124721606,427.8666666666667L367.3485523385301,417.94166666666666L373.0445434298441,417.94166666666666L378.18930957683745,427.8666666666667L383.3340757238308,427.8666666666667L388.47884187082406,427.8666666666667L393.43986636971044,431.175L398.5846325167038,427.8666666666667L403.7293986636971,427.8666666666667L409.2416481069042,421.25L414.38641425389756,427.8666666666667L419.347438752784,431.175L424.8596881959911,421.25L429.2694877505568,441.1L435.33296213808467,411.325L440.11024498886417,434.48333333333335L445.25501113585744,427.8666666666667L450.032293986637,434.48333333333335L455.5445434298441,421.25L461.2405345211581,417.94166666666666L466.7527839643653,421.25L472.0812917594655,424.55833333333334L477.2260579064588,427.8666666666667L482.3708240534521,427.8666666666667L486.78062360801783,441.1L492.4766146993319,417.94166666666666L497.07015590200444,437.7916666666667L502.39866369710467,424.55833333333334L507.7271714922049,424.55833333333334L512.5044543429844,434.48333333333335L518.2004454342984,417.94166666666666L524.0801781737193,414.6333333333333L529.5924276169264,421.25L534.1859688195991,437.7916666666667L539.1469933184856,431.175L544.108017817372,431.175L549.4365256124722,424.55833333333334L554.3975501113587,431.175L559.1748329621381,434.48333333333335L564.3195991091314,427.8666666666667L569.4643652561247,427.8666666666667L574.9766146993319,421.25L580.1213808463251,427.8666666666667L585.6336302895323,421.25L590.043429844098,441.1L595.9231625835189,414.6333333333333L600.7004454342984,434.48333333333335L606.7639198218262,411.325L612.2761692650334,421.25L617.6046770601337,424.55833333333334L623.6681514476616,411.325L629.5478841870824,417.94166666666666L634.6926503340758,424.55833333333334L640.5723830734967,414.6333333333333L645.9008908685969,424.55833333333334L651.5968819599109,417.94166666666666L656.9253897550111,424.55833333333334L662.0701559020044,427.8666666666667L667.5824053452116,421.25L672.543429844098,431.175L678.0556792873051,421.25L683.3841870824053,424.55833333333334L688.1614699331849,434.48333333333335L694.0412026726058,414.6333333333333L699.1859688195991,427.8666666666667L705.06570155902,414.6333333333333L710.2104677060133,427.8666666666667L715.1714922048998,431.175L720.3162583518931,427.8666666666667L725.4610244988864,427.8666666666667L730.4220489977729,431.175L735.7505567928731,424.55833333333334L740.5278396436526,434.48333333333335L745.8563474387528,424.55833333333334L751.0011135857461,427.8666666666667L756.3296213808463,424.55833333333334L760.923162583519,437.7916666666667L766.4354120267261,421.25L771.9476614699332,421.25L776.5412026726058,437.7916666666667L782.053452115813,421.25L786.8307349665924,434.48333333333335L791.9755011135858,427.8666666666667L797.6714922048998,417.94166666666666L802.8162583518931,427.8666666666667L808.5122494432071,417.94166666666666L812.738307349666,444.4083333333333L818.6180400890869,414.6333333333333L823.5790645879733,431.175L828.7238307349667,427.8666666666667L834.0523385300669,424.55833333333334L839.9320712694878,414.6333333333333L844.8930957683742,431.175L850.4053452115813,421.25L855.1826280623609,434.48333333333335L859.5924276169266,441.1L864.9209354120268,424.55833333333334L869.8819599109132,431.175L875.2104677060134,424.55833333333334L879.9877505567929,434.48333333333335L885.1325167037862,427.8666666666667L890.4610244988864,424.55833333333334L895.0545657015591,437.7916666666667L900.7505567928731,417.94166666666666L906.0790645879733,424.55833333333334L911.0400890868598,431.175L916.184855233853,427.8666666666667L922.2483296213809,411.325L927.3930957683742,427.8666666666667L932.5378619153676,427.8666666666667L938.0501113585747,421.25L943.7461024498887,417.94166666666666L948.7071269487751,431.175L954.0356347438753,424.55833333333334L958.9966592427618,431.175L963.7739420935412,434.48333333333335L969.1024498886414,424.55833333333334L974.4309576837417,424.55833333333334L979.2082405345212,434.48333333333335L983.9855233853007,434.48333333333335L989.130289532294,427.8666666666667L994.4587973273942,424.55833333333334L999.4198218262807,431.175L1004.9320712694878,421.25L1010.260579064588,424.55833333333334L1015.4053452115813,427.8666666666667L1021.1013363028953,417.94166666666666L1026.4298440979956,424.55833333333334L1031.7583518930958,424.55833333333334L1037.086859688196,424.55833333333334L1042.4153674832962,424.55833333333334L1047.9276169265036,421.25L1053.2561247216036,424.55833333333334L1058.400890868597,427.8666666666667L1063.5456570155902,427.8666666666667L1068.3229398663698,434.48333333333335L1074.3864142538976,411.325L1079.347438752784,431.175L1084.859688195991,421.25L1089.269487750557,441.1L1094.597995545657,424.55833333333334L1099.9265033407573,424.55833333333334L1105.0712694877507,427.8666666666667L1110.216035634744,427.8666666666667L1115.728285077951,421.25L1121.2405345211582,421.25L1126.0178173719378,434.48333333333335L1130.7951002227173,434.48333333333335L1136.491091314031,417.94166666666666L1141.2683741648107,434.48333333333335L1146.5968819599111,424.55833333333334L1152.292873051225,417.94166666666666L1157.2538975501116,431.175L1162.5824053452116,424.55833333333334L1167.1759465478842,437.7916666666667L1172.6881959910913,421.25L1177.465478841871,437.7916666666667L1182.6102449888642,424.55833333333334L1188.489977728285,414.6333333333333L1193.8184855233853,424.55833333333334L1199.3307349665924,421.25L1205.0267260579067,417.94166666666666L1209.987750556793,431.175L1215.5,421.25L1215.5,520.5Z" stroke="none" stroke-width="0" fill-opacity="0" fill="#dc3912"></path></g><g><path d="M225.5,520.5L225.5,520.5L243.5066815144766,520.5L243.5066815144766,520.5L243.69042316258353,520.5L243.69042316258353,520.5L243.69042316258353,520.5L243.69042316258353,520.5L243.87416481069042,520.5L244.05790645879733,520.5L244.05790645879733,520.5L244.05790645879733,520.5L262.24832962138083,520.5L262.24832962138083,520.5L262.24832962138083,520.5L262.24832962138083,520.5L262.4320712694878,520.5L265.5556792873051,520.5L271.0679287305122,520.5L276.39643652561244,520.5L281.7249443207127,520.5L286.31848552338533,520.5L292.01447661469933,520.5L297.15924276169267,520.5L303.2227171492205,520.5L309.10244988864144,192.97500000000002L313.69599109131406,192.97500000000002L318.65701559020044,192.97500000000002L324.3530066815145,192.97500000000002L329.4977728285078,192.97500000000002L334.4587973273942,192.97500000000002L340.1547884187082,192.97500000000002L345.48329621380844,192.97500000000002L350.4443207126949,192.97500000000002L356.5077951002227,192.97500000000002L361.65256124721606,192.97500000000002L367.3485523385301,192.97500000000002L373.0445434298441,192.97500000000002L378.18930957683745,192.97500000000002L383.3340757238308,192.97500000000002L388.47884187082406,192.97500000000002L393.43986636971044,192.97500000000002L398.5846325167038,192.97500000000002L403.7293986636971,192.97500000000002L409.2416481069042,192.97500000000002L414.38641425389756,192.97500000000002L419.347438752784,192.97500000000002L424.8596881959911,192.97500000000002L429.2694877505568,192.97500000000002L435.33296213808467,192.97500000000002L440.11024498886417,192.97500000000002L445.25501113585744,192.97500000000002L450.032293986637,192.97500000000002L455.5445434298441,192.97500000000002L461.2405345211581,192.97500000000002L466.7527839643653,192.97500000000002L472.0812917594655,192.97500000000002L477.2260579064588,192.97500000000002L482.3708240534521,192.97500000000002L486.78062360801783,192.97500000000002L492.4766146993319,192.97500000000002L497.07015590200444,192.97500000000002L502.39866369710467,192.97500000000002L507.7271714922049,192.97500000000002L512.5044543429844,192.97500000000002L518.2004454342984,192.97500000000002L524.0801781737193,192.97500000000002L529.5924276169264,192.97500000000002L534.1859688195991,192.97500000000002L539.1469933184856,192.97500000000002L544.108017817372,192.97500000000002L549.4365256124722,192.97500000000002L554.3975501113587,192.97500000000002L559.1748329621381,192.97500000000002L564.3195991091314,192.97500000000002L569.4643652561247,192.97500000000002L574.9766146993319,192.97500000000002L580.1213808463251,192.97500000000002L585.6336302895323,192.97500000000002L590.043429844098,192.97500000000002L595.9231625835189,192.97500000000002L600.7004454342984,192.97500000000002L606.7639198218262,192.97500000000002L612.2761692650334,192.97500000000002L617.6046770601337,192.97500000000002L623.6681514476616,192.97500000000002L629.5478841870824,192.97500000000002L634.6926503340758,192.97500000000002L640.5723830734967,192.97500000000002L645.9008908685969,192.97500000000002L651.5968819599109,192.97500000000002L656.9253897550111,192.97500000000002L662.0701559020044,192.97500000000002L667.5824053452116,192.97500000000002L672.543429844098,192.97500000000002L678.0556792873051,192.97500000000002L683.3841870824053,192.97500000000002L688.1614699331849,192.97500000000002L694.0412026726058,192.97500000000002L699.1859688195991,192.97500000000002L705.06570155902,192.97500000000002L710.2104677060133,192.97500000000002L715.1714922048998,192.97500000000002L720.3162583518931,192.97500000000002L725.4610244988864,192.97500000000002L730.4220489977729,192.97500000000002L735.7505567928731,192.97500000000002L740.5278396436526,192.97500000000002L745.8563474387528,192.97500000000002L751.0011135857461,192.97500000000002L756.3296213808463,192.97500000000002L760.923162583519,192.97500000000002L766.4354120267261,192.97500000000002L771.9476614699332,192.97500000000002L776.5412026726058,192.97500000000002L782.053452115813,192.97500000000002L786.8307349665924,192.97500000000002L791.9755011135858,192.97500000000002L797.6714922048998,192.97500000000002L802.8162583518931,192.97500000000002L808.5122494432071,192.97500000000002L812.738307349666,192.97500000000002L818.6180400890869,192.97500000000002L823.5790645879733,192.97500000000002L828.7238307349667,192.97500000000002L834.0523385300669,192.97500000000002L839.9320712694878,192.97500000000002L844.8930957683742,192.97500000000002L850.4053452115813,192.97500000000002L855.1826280623609,192.97500000000002L859.5924276169266,192.97500000000002L864.9209354120268,192.97500000000002L869.8819599109132,192.97500000000002L875.2104677060134,192.97500000000002L879.9877505567929,192.97500000000002L885.1325167037862,192.97500000000002L890.4610244988864,192.97500000000002L895.0545657015591,192.97500000000002L900.7505567928731,192.97500000000002L906.0790645879733,192.97500000000002L911.0400890868598,192.97500000000002L916.184855233853,192.97500000000002L922.2483296213809,192.97500000000002L927.3930957683742,192.97500000000002L932.5378619153676,192.97500000000002L938.0501113585747,192.97500000000002L943.7461024498887,192.97500000000002L948.7071269487751,192.97500000000002L954.0356347438753,192.97500000000002L958.9966592427618,192.97500000000002L963.7739420935412,192.97500000000002L969.1024498886414,192.97500000000002L974.4309576837417,192.97500000000002L979.2082405345212,192.97500000000002L983.9855233853007,192.97500000000002L989.130289532294,192.97500000000002L994.4587973273942,192.97500000000002L999.4198218262807,192.97500000000002L1004.9320712694878,192.97500000000002L1010.260579064588,192.97500000000002L1015.4053452115813,192.97500000000002L1021.1013363028953,192.97500000000002L1026.4298440979956,192.97500000000002L1031.7583518930958,192.97500000000002L1037.086859688196,192.97500000000002L1042.4153674832962,192.97500000000002L1047.9276169265036,192.97500000000002L1053.2561247216036,192.97500000000002L1058.400890868597,192.97500000000002L1063.5456570155902,192.97500000000002L1068.3229398663698,192.97500000000002L1074.3864142538976,192.97500000000002L1079.347438752784,192.97500000000002L1084.859688195991,192.97500000000002L1089.269487750557,192.97500000000002L1094.597995545657,192.97500000000002L1099.9265033407573,192.97500000000002L1105.0712694877507,192.97500000000002L1110.216035634744,192.97500000000002L1115.728285077951,192.97500000000002L1121.2405345211582,192.97500000000002L1126.0178173719378,192.97500000000002L1130.7951002227173,192.97500000000002L1136.491091314031,192.97500000000002L1141.2683741648107,192.97500000000002L1146.5968819599111,192.97500000000002L1152.292873051225,192.97500000000002L1157.2538975501116,192.97500000000002L1162.5824053452116,192.97500000000002L1167.1759465478842,192.97500000000002L1172.6881959910913,192.97500000000002L1177.465478841871,192.97500000000002L1182.6102449888642,192.97500000000002L1188.489977728285,192.97500000000002L1193.8184855233853,192.97500000000002L1199.3307349665924,192.97500000000002L1205.0267260579067,192.97500000000002L1209.987750556793,192.97500000000002L1215.5,192.97500000000002L1215.5,520.5Z" stroke="none" stroke-width="0" fill-opacity="0.3" fill="#93c47d"></path></g></g><g><rect x="225" y="123" width="1" height="398" stroke="none" stroke-width="0" fill="#333333"></rect><rect x="225" y="520" width="991" height="1" stroke="none" stroke-width="0" fill="#333333"></rect><rect x="225" y="520" width="991" height="1" stroke="none" stroke-width="0" fill="#333333"></rect></g><g><path d="M225.5,423.235L243.5066815144766,423.235L243.5066815144766,423.235L243.69042316258353,424.22749999999996L243.69042316258353,424.22749999999996L243.69042316258353,423.235L243.69042316258353,423.235L243.87416481069042,424.22749999999996L244.05790645879733,421.25L244.05790645879733,421.25L244.05790645879733,421.25L262.24832962138083,420.2575L262.24832962138083,421.25L262.24832962138083,420.2575L262.24832962138083,420.2575L262.4320712694878,421.25L265.5556792873051,403.385L271.0679287305122,373.61L276.39643652561244,346.8125L281.7249443207127,318.03L286.31848552338533,293.2175L292.01447661469933,359.71500000000003L297.15924276169267,332.9175L303.2227171492205,300.16499999999996L309.10244988864144,268.405L313.69599109131406,243.59249999999997L318.65701559020044,234.65999999999997L324.3530066815145,232.675L329.4977728285078,233.66749999999996L334.4587973273942,204.885L340.1547884187082,204.885L345.48329621380844,200.91499999999996L350.4443207126949,204.885L356.5077951002227,199.92249999999996L361.65256124721606,204.885L367.3485523385301,205.8775L373.0445434298441,199.92249999999996L378.18930957683745,198.93L383.3340757238308,201.90749999999997L388.47884187082406,201.90749999999997L393.43986636971044,232.675L398.5846325167038,233.66749999999996L403.7293986636971,232.675L409.2416481069042,235.65249999999997L414.38641425389756,235.65249999999997L419.347438752784,239.6225L424.8596881959911,240.615L429.2694877505568,244.58499999999998L435.33296213808467,239.6225L440.11024498886417,241.60749999999996L445.25501113585744,240.615L450.032293986637,242.59999999999997L455.5445434298441,240.615L461.2405345211581,239.6225L466.7527839643653,237.6375L472.0812917594655,235.65249999999997L477.2260579064588,237.6375L482.3708240534521,234.65999999999997L486.78062360801783,242.59999999999997L492.4766146993319,212.825L497.07015590200444,212.825L502.39866369710467,211.83249999999998L507.7271714922049,209.84749999999997L512.5044543429844,213.8175L518.2004454342984,213.8175L524.0801781737193,210.83999999999997L529.5924276169264,209.84749999999997L534.1859688195991,212.825L539.1469933184856,213.8175L544.108017817372,210.83999999999997L549.4365256124722,237.6375L554.3975501113587,240.615L559.1748329621381,242.59999999999997L564.3195991091314,240.615L569.4643652561247,243.59249999999997L574.9766146993319,245.5775L580.1213808463251,248.555L585.6336302895323,242.59999999999997L590.043429844098,245.5775L595.9231625835189,240.615L600.7004454342984,243.59249999999997L606.7639198218262,237.6375L612.2761692650334,234.65999999999997L617.6046770601337,232.675L623.6681514476616,227.71249999999998L629.5478841870824,226.71999999999997L634.6926503340758,226.71999999999997L640.5723830734967,223.7425L645.9008908685969,219.77249999999998L651.5968819599109,190.99L656.9253897550111,190.99L662.0701559020044,189.9975L667.5824053452116,191.98249999999996L672.543429844098,194.95999999999998L678.0556792873051,193.96749999999997L683.3841870824053,197.9375L688.1614699331849,203.89249999999998L694.0412026726058,199.92249999999996L699.1859688195991,203.89249999999998L705.06570155902,200.91499999999996L710.2104677060133,232.675L715.1714922048998,233.66749999999996L720.3162583518931,235.65249999999997L725.4610244988864,234.65999999999997L730.4220489977729,237.6375L735.7505567928731,237.6375L740.5278396436526,237.6375L745.8563474387528,240.615L751.0011135857461,241.60749999999996L756.3296213808463,243.59249999999997L760.923162583519,247.5625L766.4354120267261,243.59249999999997L771.9476614699332,241.60749999999996L776.5412026726058,244.58499999999998L782.053452115813,241.60749999999996L786.8307349665924,244.58499999999998L791.9755011135858,243.59249999999997L797.6714922048998,240.615L802.8162583518931,240.615L808.5122494432071,215.8025L812.738307349666,215.8025L818.6180400890869,208.85499999999996L823.5790645879733,212.825L828.7238307349667,213.8175L834.0523385300669,210.83999999999997L839.9320712694878,207.8625L844.8930957683742,206.87L850.4053452115813,205.8775L855.1826280623609,209.84749999999997L859.5924276169266,213.8175L864.9209354120268,238.63L869.8819599109132,243.59249999999997L875.2104677060134,241.60749999999996L879.9877505567929,243.59249999999997L885.1325167037862,244.58499999999998L890.4610244988864,247.5625L895.0545657015591,249.5475L900.7505567928731,248.555L906.0790645879733,246.57L911.0400890868598,242.59999999999997L916.184855233853,243.59249999999997L922.2483296213809,237.6375L927.3930957683742,238.63L932.5378619153676,236.64499999999998L938.0501113585747,234.65999999999997L943.7461024498887,232.675L948.7071269487751,230.69L954.0356347438753,232.675L958.9966592427618,234.65999999999997L963.7739420935412,206.87L969.1024498886414,206.87L974.4309576837417,205.8775L979.2082405345212,212.825L983.9855233853007,214.81L989.130289532294,214.81L994.4587973273942,215.8025L999.4198218262807,219.77249999999998L1004.9320712694878,216.79499999999996L1010.260579064588,216.79499999999996L1015.4053452115813,215.8025L1021.1013363028953,239.6225L1026.4298440979956,239.6225L1031.7583518930958,237.6375L1037.086859688196,233.66749999999996L1042.4153674832962,232.675L1047.9276169265036,231.6825L1053.2561247216036,229.6975L1058.400890868597,231.6825L1063.5456570155902,232.675L1068.3229398663698,234.65999999999997L1074.3864142538976,232.675L1079.347438752784,234.65999999999997L1084.859688195991,234.65999999999997L1089.269487750557,238.63L1094.597995545657,238.63L1099.9265033407573,239.6225L1105.0712694877507,240.615L1110.216035634744,240.615L1115.728285077951,238.63L1121.2405345211582,209.84749999999997L1126.0178173719378,209.84749999999997L1130.7951002227173,215.8025L1136.491091314031,211.83249999999998L1141.2683741648107,215.8025L1146.5968819599111,210.83999999999997L1152.292873051225,208.85499999999996L1157.2538975501116,211.83249999999998L1162.5824053452116,209.84749999999997L1167.1759465478842,212.825L1172.6881959910913,212.825L1177.465478841871,243.59249999999997L1182.6102449888642,240.615L1188.489977728285,239.6225L1193.8184855233853,236.64499999999998L1199.3307349665924,235.65249999999997L1205.0267260579067,235.65249999999997L1209.987750556793,235.65249999999997L1215.5,234.65999999999997" stroke="#3366cc" stroke-width="1" fill-opacity="1" fill="none"></path><path d="M225.5,520.5L243.5066815144766,196.28333333333336L243.5066815144766,520.5L243.69042316258353,517.1916666666667L243.69042316258353,520.5L243.69042316258353,520.5L243.69042316258353,520.5L243.87416481069042,517.1916666666667L244.05790645879733,517.1916666666667L244.05790645879733,520.5L244.05790645879733,520.5L262.24832962138083,192.97500000000002L262.24832962138083,520.5L262.24832962138083,520.5L262.24832962138083,520.5L262.4320712694878,517.1916666666667L265.5556792873051,464.2583333333333L271.0679287305122,421.25L276.39643652561244,424.55833333333334L281.7249443207127,424.55833333333334L286.31848552338533,437.7916666666667L292.01447661469933,417.94166666666666L297.15924276169267,427.8666666666667L303.2227171492205,411.325L309.10244988864144,414.6333333333333L313.69599109131406,437.7916666666667L318.65701559020044,431.175L324.3530066815145,417.94166666666666L329.4977728285078,427.8666666666667L334.4587973273942,431.175L340.1547884187082,417.94166666666666L345.48329621380844,424.55833333333334L350.4443207126949,431.175L356.5077951002227,411.325L361.65256124721606,427.8666666666667L367.3485523385301,417.94166666666666L373.0445434298441,417.94166666666666L378.18930957683745,427.8666666666667L383.3340757238308,427.8666666666667L388.47884187082406,427.8666666666667L393.43986636971044,431.175L398.5846325167038,427.8666666666667L403.7293986636971,427.8666666666667L409.2416481069042,421.25L414.38641425389756,427.8666666666667L419.347438752784,431.175L424.8596881959911,421.25L429.2694877505568,441.1L435.33296213808467,411.325L440.11024498886417,434.48333333333335L445.25501113585744,427.8666666666667L450.032293986637,434.48333333333335L455.5445434298441,421.25L461.2405345211581,417.94166666666666L466.7527839643653,421.25L472.0812917594655,424.55833333333334L477.2260579064588,427.8666666666667L482.3708240534521,427.8666666666667L486.78062360801783,441.1L492.4766146993319,417.94166666666666L497.07015590200444,437.7916666666667L502.39866369710467,424.55833333333334L507.7271714922049,424.55833333333334L512.5044543429844,434.48333333333335L518.2004454342984,417.94166666666666L524.0801781737193,414.6333333333333L529.5924276169264,421.25L534.1859688195991,437.7916666666667L539.1469933184856,431.175L544.108017817372,431.175L549.4365256124722,424.55833333333334L554.3975501113587,431.175L559.1748329621381,434.48333333333335L564.3195991091314,427.8666666666667L569.4643652561247,427.8666666666667L574.9766146993319,421.25L580.1213808463251,427.8666666666667L585.6336302895323,421.25L590.043429844098,441.1L595.9231625835189,414.6333333333333L600.7004454342984,434.48333333333335L606.7639198218262,411.325L612.2761692650334,421.25L617.6046770601337,424.55833333333334L623.6681514476616,411.325L629.5478841870824,417.94166666666666L634.6926503340758,424.55833333333334L640.5723830734967,414.6333333333333L645.9008908685969,424.55833333333334L651.5968819599109,417.94166666666666L656.9253897550111,424.55833333333334L662.0701559020044,427.8666666666667L667.5824053452116,421.25L672.543429844098,431.175L678.0556792873051,421.25L683.3841870824053,424.55833333333334L688.1614699331849,434.48333333333335L694.0412026726058,414.6333333333333L699.1859688195991,427.8666666666667L705.06570155902,414.6333333333333L710.2104677060133,427.8666666666667L715.1714922048998,431.175L720.3162583518931,427.8666666666667L725.4610244988864,427.8666666666667L730.4220489977729,431.175L735.7505567928731,424.55833333333334L740.5278396436526,434.48333333333335L745.8563474387528,424.55833333333334L751.0011135857461,427.8666666666667L756.3296213808463,424.55833333333334L760.923162583519,437.7916666666667L766.4354120267261,421.25L771.9476614699332,421.25L776.5412026726058,437.7916666666667L782.053452115813,421.25L786.8307349665924,434.48333333333335L791.9755011135858,427.8666666666667L797.6714922048998,417.94166666666666L802.8162583518931,427.8666666666667L808.5122494432071,417.94166666666666L812.738307349666,444.4083333333333L818.6180400890869,414.6333333333333L823.5790645879733,431.175L828.7238307349667,427.8666666666667L834.0523385300669,424.55833333333334L839.9320712694878,414.6333333333333L844.8930957683742,431.175L850.4053452115813,421.25L855.1826280623609,434.48333333333335L859.5924276169266,441.1L864.9209354120268,424.55833333333334L869.8819599109132,431.175L875.2104677060134,424.55833333333334L879.9877505567929,434.48333333333335L885.1325167037862,427.8666666666667L890.4610244988864,424.55833333333334L895.0545657015591,437.7916666666667L900.7505567928731,417.94166666666666L906.0790645879733,424.55833333333334L911.0400890868598,431.175L916.184855233853,427.8666666666667L922.2483296213809,411.325L927.3930957683742,427.8666666666667L932.5378619153676,427.8666666666667L938.0501113585747,421.25L943.7461024498887,417.94166666666666L948.7071269487751,431.175L954.0356347438753,424.55833333333334L958.9966592427618,431.175L963.7739420935412,434.48333333333335L969.1024498886414,424.55833333333334L974.4309576837417,424.55833333333334L979.2082405345212,434.48333333333335L983.9855233853007,434.48333333333335L989.130289532294,427.8666666666667L994.4587973273942,424.55833333333334L999.4198218262807,431.175L1004.9320712694878,421.25L1010.260579064588,424.55833333333334L1015.4053452115813,427.8666666666667L1021.1013363028953,417.94166666666666L1026.4298440979956,424.55833333333334L1031.7583518930958,424.55833333333334L1037.086859688196,424.55833333333334L1042.4153674832962,424.55833333333334L1047.9276169265036,421.25L1053.2561247216036,424.55833333333334L1058.400890868597,427.8666666666667L1063.5456570155902,427.8666666666667L1068.3229398663698,434.48333333333335L1074.3864142538976,411.325L1079.347438752784,431.175L1084.859688195991,421.25L1089.269487750557,441.1L1094.597995545657,424.55833333333334L1099.9265033407573,424.55833333333334L1105.0712694877507,427.8666666666667L1110.216035634744,427.8666666666667L1115.728285077951,421.25L1121.2405345211582,421.25L1126.0178173719378,434.48333333333335L1130.7951002227173,434.48333333333335L1136.491091314031,417.94166666666666L1141.2683741648107,434.48333333333335L1146.5968819599111,424.55833333333334L1152.292873051225,417.94166666666666L1157.2538975501116,431.175L1162.5824053452116,424.55833333333334L1167.1759465478842,437.7916666666667L1172.6881959910913,421.25L1177.465478841871,437.7916666666667L1182.6102449888642,424.55833333333334L1188.489977728285,414.6333333333333L1193.8184855233853,424.55833333333334L1199.3307349665924,421.25L1205.0267260579067,417.94166666666666L1209.987750556793,431.175L1215.5,421.25" stroke="#dc3912" stroke-width="1" fill-opacity="1" fill="none"></path><path d="M225.5,520.5L243.5066815144766,520.5L243.5066815144766,520.5L243.69042316258353,520.5L243.69042316258353,520.5L243.69042316258353,520.5L243.69042316258353,520.5L243.87416481069042,520.5L244.05790645879733,520.5L244.05790645879733,520.5L244.05790645879733,520.5L262.24832962138083,520.5L262.24832962138083,520.5L262.24832962138083,520.5L262.24832962138083,520.5L262.4320712694878,520.5L265.5556792873051,520.5L271.0679287305122,520.5L276.39643652561244,520.5L281.7249443207127,520.5L286.31848552338533,520.5L292.01447661469933,520.5L297.15924276169267,520.5L303.2227171492205,520.5L309.10244988864144,192.97500000000002L313.69599109131406,192.97500000000002L318.65701559020044,192.97500000000002L324.3530066815145,192.97500000000002L329.4977728285078,192.97500000000002L334.4587973273942,192.97500000000002L340.1547884187082,192.97500000000002L345.48329621380844,192.97500000000002L350.4443207126949,192.97500000000002L356.5077951002227,192.97500000000002L361.65256124721606,192.97500000000002L367.3485523385301,192.97500000000002L373.0445434298441,192.97500000000002L378.18930957683745,192.97500000000002L383.3340757238308,192.97500000000002L388.47884187082406,192.97500000000002L393.43986636971044,192.97500000000002L398.5846325167038,192.97500000000002L403.7293986636971,192.97500000000002L409.2416481069042,192.97500000000002L414.38641425389756,192.97500000000002L419.347438752784,192.97500000000002L424.8596881959911,192.97500000000002L429.2694877505568,192.97500000000002L435.33296213808467,192.97500000000002L440.11024498886417,192.97500000000002L445.25501113585744,192.97500000000002L450.032293986637,192.97500000000002L455.5445434298441,192.97500000000002L461.2405345211581,192.97500000000002L466.7527839643653,192.97500000000002L472.0812917594655,192.97500000000002L477.2260579064588,192.97500000000002L482.3708240534521,192.97500000000002L486.78062360801783,192.97500000000002L492.4766146993319,192.97500000000002L497.07015590200444,192.97500000000002L502.39866369710467,192.97500000000002L507.7271714922049,192.97500000000002L512.5044543429844,192.97500000000002L518.2004454342984,192.97500000000002L524.0801781737193,192.97500000000002L529.5924276169264,192.97500000000002L534.1859688195991,192.97500000000002L539.1469933184856,192.97500000000002L544.108017817372,192.97500000000002L549.4365256124722,192.97500000000002L554.3975501113587,192.97500000000002L559.1748329621381,192.97500000000002L564.3195991091314,192.97500000000002L569.4643652561247,192.97500000000002L574.9766146993319,192.97500000000002L580.1213808463251,192.97500000000002L585.6336302895323,192.97500000000002L590.043429844098,192.97500000000002L595.9231625835189,192.97500000000002L600.7004454342984,192.97500000000002L606.7639198218262,192.97500000000002L612.2761692650334,192.97500000000002L617.6046770601337,192.97500000000002L623.6681514476616,192.97500000000002L629.5478841870824,192.97500000000002L634.6926503340758,192.97500000000002L640.5723830734967,192.97500000000002L645.9008908685969,192.97500000000002L651.5968819599109,192.97500000000002L656.9253897550111,192.97500000000002L662.0701559020044,192.97500000000002L667.5824053452116,192.97500000000002L672.543429844098,192.97500000000002L678.0556792873051,192.97500000000002L683.3841870824053,192.97500000000002L688.1614699331849,192.97500000000002L694.0412026726058,192.97500000000002L699.1859688195991,192.97500000000002L705.06570155902,192.97500000000002L710.2104677060133,192.97500000000002L715.1714922048998,192.97500000000002L720.3162583518931,192.97500000000002L725.4610244988864,192.97500000000002L730.4220489977729,192.97500000000002L735.7505567928731,192.97500000000002L740.5278396436526,192.97500000000002L745.8563474387528,192.97500000000002L751.0011135857461,192.97500000000002L756.3296213808463,192.97500000000002L760.923162583519,192.97500000000002L766.4354120267261,192.97500000000002L771.9476614699332,192.97500000000002L776.5412026726058,192.97500000000002L782.053452115813,192.97500000000002L786.8307349665924,192.97500000000002L791.9755011135858,192.97500000000002L797.6714922048998,192.97500000000002L802.8162583518931,192.97500000000002L808.5122494432071,192.97500000000002L812.738307349666,192.97500000000002L818.6180400890869,192.97500000000002L823.5790645879733,192.97500000000002L828.7238307349667,192.97500000000002L834.0523385300669,192.97500000000002L839.9320712694878,192.97500000000002L844.8930957683742,192.97500000000002L850.4053452115813,192.97500000000002L855.1826280623609,192.97500000000002L859.5924276169266,192.97500000000002L864.9209354120268,192.97500000000002L869.8819599109132,192.97500000000002L875.2104677060134,192.97500000000002L879.9877505567929,192.97500000000002L885.1325167037862,192.97500000000002L890.4610244988864,192.97500000000002L895.0545657015591,192.97500000000002L900.7505567928731,192.97500000000002L906.0790645879733,192.97500000000002L911.0400890868598,192.97500000000002L916.184855233853,192.97500000000002L922.2483296213809,192.97500000000002L927.3930957683742,192.97500000000002L932.5378619153676,192.97500000000002L938.0501113585747,192.97500000000002L943.7461024498887,192.97500000000002L948.7071269487751,192.97500000000002L954.0356347438753,192.97500000000002L958.9966592427618,192.97500000000002L963.7739420935412,192.97500000000002L969.1024498886414,192.97500000000002L974.4309576837417,192.97500000000002L979.2082405345212,192.97500000000002L983.9855233853007,192.97500000000002L989.130289532294,192.97500000000002L994.4587973273942,192.97500000000002L999.4198218262807,192.97500000000002L1004.9320712694878,192.97500000000002L1010.260579064588,192.97500000000002L1015.4053452115813,192.97500000000002L1021.1013363028953,192.97500000000002L1026.4298440979956,192.97500000000002L1031.7583518930958,192.97500000000002L1037.086859688196,192.97500000000002L1042.4153674832962,192.97500000000002L1047.9276169265036,192.97500000000002L1053.2561247216036,192.97500000000002L1058.400890868597,192.97500000000002L1063.5456570155902,192.97500000000002L1068.3229398663698,192.97500000000002L1074.3864142538976,192.97500000000002L1079.347438752784,192.97500000000002L1084.859688195991,192.97500000000002L1089.269487750557,192.97500000000002L1094.597995545657,192.97500000000002L1099.9265033407573,192.97500000000002L1105.0712694877507,192.97500000000002L1110.216035634744,192.97500000000002L1115.728285077951,192.97500000000002L1121.2405345211582,192.97500000000002L1126.0178173719378,192.97500000000002L1130.7951002227173,192.97500000000002L1136.491091314031,192.97500000000002L1141.2683741648107,192.97500000000002L1146.5968819599111,192.97500000000002L1152.292873051225,192.97500000000002L1157.2538975501116,192.97500000000002L1162.5824053452116,192.97500000000002L1167.1759465478842,192.97500000000002L1172.6881959910913,192.97500000000002L1177.465478841871,192.97500000000002L1182.6102449888642,192.97500000000002L1188.489977728285,192.97500000000002L1193.8184855233853,192.97500000000002L1199.3307349665924,192.97500000000002L1205.0267260579067,192.97500000000002L1209.987750556793,192.97500000000002L1215.5,192.97500000000002" stroke="#93c47d" stroke-width="1" fill-opacity="1" fill="none"></path></g></g><g></g><g><g><text text-anchor="middle" x="359.2639198218263" y="544.6" font-family="Arial" font-size="16" stroke="none" stroke-width="0" fill="#444444">1000</text></g><g><text text-anchor="middle" x="543.0055679287306" y="544.6" font-family="Arial" font-size="16" stroke="none" stroke-width="0" fill="#444444">2000</text></g><g><text text-anchor="middle" x="726.7472160356348" y="544.6" font-family="Arial" font-size="16" stroke="none" stroke-width="0" fill="#444444">3000</text></g><g><text text-anchor="middle" x="910.488864142539" y="544.6" font-family="Arial" font-size="16" stroke="none" stroke-width="0" fill="#444444">4000</text></g><g><text text-anchor="middle" x="1094.230512249443" y="544.6" font-family="Arial" font-size="16" stroke="none" stroke-width="0" fill="#444444">5000</text></g><g><text text-anchor="end" x="209" y="526.1" font-family="Arial" font-size="16" stroke="none" stroke-width="0" fill="#444444">0</text></g><g><text text-anchor="end" x="209" y="426.85" font-family="Arial" font-size="16" stroke="none" stroke-width="0" fill="#444444">30</text></g><g><text text-anchor="end" x="209" y="327.6" font-family="Arial" font-size="16" stroke="none" stroke-width="0" fill="#444444">60</text></g><g><text text-anchor="end" x="209" y="228.35" font-family="Arial" font-size="16" stroke="none" stroke-width="0" fill="#444444">90</text></g><g><text text-anchor="end" x="209" y="129.1" font-family="Arial" font-size="16" stroke="none" stroke-width="0" fill="#444444">120</text></g><g><text text-anchor="start" x="1232" y="526.1" font-family="Arial" font-size="16" stroke="none" stroke-width="0" fill="#444444">0</text></g><g><text text-anchor="start" x="1232" y="426.85" font-family="Arial" font-size="16" stroke="none" stroke-width="0" fill="#444444">100</text></g><g><text text-anchor="start" x="1232" y="327.6" font-family="Arial" font-size="16" stroke="none" stroke-width="0" fill="#444444">200</text></g><g><text text-anchor="start" x="1232" y="228.35" font-family="Arial" font-size="16" stroke="none" stroke-width="0" fill="#444444">300</text></g><g><text text-anchor="start" x="1232" y="129.1" font-family="Arial" font-size="16" stroke="none" stroke-width="0" fill="#444444">400</text></g></g><g><rect x="225" y="133" width="221" height="16" stroke="none" stroke-width="0" fill-opacity="0" fill="#ffffff"></rect><g><rect x="225" y="133" width="53" height="16" stroke="none" stroke-width="0" fill-opacity="0" fill="#ffffff"></rect><g><g><text text-anchor="start" x="247" y="146.6" font-family="Arial" font-size="16" stroke="#ffffff" stroke-width="3" fill="#222222" aria-hidden="true">RTT</text><text text-anchor="start" x="247" y="146.6" font-family="Arial" font-size="16" stroke="none" stroke-width="0" fill="#222222">RTT</text></g></g><rect x="225" y="133" width="16" height="16" stroke="#ffffff" stroke-width="1" fill="#3366cc"></rect></g><g><rect x="304" y="133" width="53" height="16" stroke="none" stroke-width="0" fill-opacity="0" fill="#ffffff"></rect><g><g><text text-anchor="start" x="326" y="146.6" font-family="Arial" font-size="16" stroke="#ffffff" stroke-width="3" fill="#222222" aria-hidden="true">Darr</text><text text-anchor="start" x="326" y="146.6" font-family="Arial" font-size="16" stroke="none" stroke-width="0" fill="#222222">Darr</text></g></g><rect x="304" y="133" width="16" height="16" stroke="#ffffff" stroke-width="1" fill="#dc3912"></rect></g><g><rect x="383" y="133" width="63" height="16" stroke="none" stroke-width="0" fill-opacity="0" fill="#ffffff"></rect><g><g><text text-anchor="start" x="405" y="146.6" font-family="Arial" font-size="16" stroke="#ffffff" stroke-width="3" fill="#222222" aria-hidden="true">Fresh</text><text text-anchor="start" x="405" y="146.6" font-family="Arial" font-size="16" stroke="none" stroke-width="0" fill="#222222">Fresh</text></g></g><rect x="383" y="133" width="16" height="16" stroke="#ffffff" stroke-width="1" fill="#93c47d"></rect></g></g></g><g><g><text text-anchor="middle" x="720.5" y="601.1" font-family="Arial" font-size="16" font-style="italic" stroke="none" stroke-width="0" fill="#222222">Time</text></g><g><text text-anchor="middle" x="96.6" y="322" font-family="Arial" font-size="16" font-style="italic" transform="rotate(-90 96.6 322)" stroke="none" stroke-width="0" fill="#222222">Darr (ms)</text></g><g><text text-anchor="middle" x="1355.1" y="322" font-family="Arial" font-size="16" font-style="italic" transform="rotate(-90 1355.1 322)" stroke="none" stroke-width="0" fill="#222222">RTT (ms)</text></g></g><g></g></svg>