<svg width="1440" height="644" aria-label="A chart." style="overflow: hidden;"><defs id="defs"><clipPath id="_ABSTRACT_RENDERER_ID_246"><rect x="225" y="123" width="991" height="398"></rect></clipPath></defs><rect x="0" y="0" width="1440" height="644" stroke="none" stroke-width="0" fill="#ffffff"></rect><g><rect x="225" y="123" width="991" height="398" stroke="none" stroke-width="0" fill-opacity="0" fill="#ffffff"></rect><g clip-path="url(#_ABSTRACT_RENDERER_ID_246)"><g><rect x="297" y="123" width="1" height="398" stroke="none" stroke-width="0" fill="#cccccc"></rect><rect x="507" y="123" width="1" height="398" stroke="none" stroke-width="0" fill="#cccccc"></rect><rect x="718" y="123" width="1" height="398" stroke="none" stroke-width="0" fill="#cccccc"></rect><rect x="928" y="123" width="1" height="398" stroke="none" stroke-width="0" fill="#cccccc"></rect><rect x="1139" y="123" width="1" height="398" stroke="none" stroke-width="0" fill="#cccccc"></rect><rect x="225" y="520" width="991" height="1" stroke="none" stroke-width="0" fill="#cccccc"></rect><rect x="225" y="421" width="991" height="1" stroke="none" stroke-width="0" fill="#cccccc"></rect><rect x="225" y="322" width="991" height="1" stroke="none" stroke-width="0" fill="#cccccc"></rect><rect x="225" y="222" width="991" height="1" stroke="none" stroke-width="0" fill="#cccccc"></rect><rect x="225" y="123" width="991" height="1" stroke="none" stroke-width="0" fill="#cccccc"></rect><rect x="225" y="520" width="991" height="1" stroke="none" stroke-width="0" fill="#cccccc"></rect><rect x="225" y="421" width="991" height="1" stroke="none" stroke-width="0" fill="#cccccc"></rect><rect x="225" y="322" width="991" height="1" stroke="none" stroke-width="0" fill="#cccccc"></rect><rect x="225" y="222" width="991" height="1" stroke="none" stroke-width="0" fill="#cccccc"></rect><rect x="225" y="123" width="991" height="1" stroke="none" stroke-width="0" fill="#cccccc"></rect></g><g><g><path d="M225.5,520.5L225.5,196.28333333333336L235.82017870439316,196.28333333333336L235.92548665035633,192.97500000000002L235.92548665035633,192.97500000000002L246.3509733007127,189.66666666666669L246.45628124667587,192.97500000000002L246.45628124667587,192.97500000000002L256.67115200510585,199.5916666666667L256.67115200510585,199.5916666666667L256.67115200510585,199.5916666666667L266.5700989256462,209.5166666666667L266.8860227635358,199.5916666666667L266.991330709499,196.28333333333336L276.67966173811294,202.90000000000003L276.99558557600255,206.20833333333337L276.99558557600255,206.20833333333337L281.83975109030956,206.20833333333337L286.6839166046165,206.20833333333337L287.4210722263589,196.28333333333336L287.4210722263589,192.97500000000002L296.4775555791937,212.82500000000005L297.32001914689926,209.5166666666667L297.63594298478887,199.5916666666667L306.69242633762366,199.5916666666667L307.53488990532924,202.90000000000003L308.1667375811084,189.66666666666669L317.0126050420168,196.28333333333336L317.74976066375916,199.5916666666667L318.59222423146474,192.97500000000002L326.91155196255716,209.5166666666667L327.5433996383363,212.82500000000005L328.7017870439315,202.90000000000003L337.02111477502393,202.90000000000003L337.7582703967663,199.5916666666667L339.12727369428785,192.97500000000002L347.34129347941706,196.28333333333336L348.07844910115944,196.28333333333336L349.3421444527178,199.5916666666667L358.1880119136262,179.74166666666667L358.609243697479,189.66666666666669L359.7676311030741,192.97500000000002L368.297574726093,202.90000000000003L368.71880650994575,202.90000000000003L369.4559621316881,202.90000000000003L369.8771939155409,202.90000000000003L378.5124454845229,202.90000000000003L378.8283693224125,202.90000000000003L379.98675672800766,202.90000000000003L388.83262418891604,196.28333333333336L389.04324008084245,202.90000000000003L390.6228592702904,186.35833333333335L398.73157110945647,209.5166666666667L399.1528028933092,202.90000000000003L400.94303797468353,196.28333333333336L408.8411339219232,202.90000000000003L409.262365705776,202.90000000000003L411.05260078715025,206.20833333333337L418.74008084246356,209.5166666666667L419.58254441016913,196.28333333333336L421.47808743750664,192.97500000000002L429.1655674928199,192.97500000000002L430.00803106052547,192.97500000000002L431.5876502499734,202.90000000000003L439.4857461972131,196.28333333333336L440.2229018189554,199.5916666666667L441.80252100840335,199.5916666666667L449.4900010637166,206.20833333333337L450.6483884693117,192.97500000000002L452.1226997127965,196.28333333333336L458.1252526326987,199.5916666666667L459.7048718221466,199.5916666666667L460.9685671737049,196.28333333333336L462.653494309116,189.66666666666669L469.91974258057655,199.5916666666667L470.9728220402085,206.20833333333337L472.65774917561964,206.20833333333337L480.2399212849697,196.28333333333336L480.977076906712,206.20833333333337L482.87261993404957,199.5916666666667L490.4547920433996,199.5916666666667L491.5078715030316,189.66666666666669L492.9821827465163,202.90000000000003L500.7749707477928,196.28333333333336L501.7227422614615,199.5916666666667L503.4076693968727,192.97500000000002L510.67391766833316,212.82500000000005L511.7269971279651,206.20833333333337L513.2013083714498,212.82500000000005L520.9940963727263,196.28333333333336L522.2577917242846,192.97500000000002L523.9427188596958,183.05L530.8930432932666,209.5166666666667L532.4726624827147,199.5916666666667L534.0522816721625,202.90000000000003L540.8972981597702,206.20833333333337L542.4769173492182,206.20833333333337L544.056536538666,206.20833333333337L546.8998510796723,202.90000000000003L551.006860972237,202.90000000000003L552.4811722157217,209.5166666666667L554.1660993511329,202.90000000000003L561.4323476225934,196.28333333333336L562.6960429741516,199.5916666666667L564.486278055526,196.28333333333336L571.4366024890969,206.20833333333337L573.0162216785448,196.28333333333336L574.3852249760664,209.5166666666667L581.5461653015636,202.90000000000003L583.1257844910116,202.90000000000003L584.3894798425699,209.5166666666667L591.8663440059568,196.28333333333336L593.2353473034783,202.90000000000003L594.6043506009999,202.90000000000003L601.7652909264972,209.5166666666667L603.5555260078715,199.5916666666667L605.0298372513562,196.28333333333336L612.0854696308903,196.28333333333336L614.0863206041911,189.66666666666669L615.3500159557493,196.28333333333336L621.9844165514307,209.5166666666667L624.1958834166578,202.90000000000003L625.5648867141792,199.5916666666667L632.1992873098607,199.5916666666667L634.2001382831613,206.20833333333337L635.2532177427934,202.90000000000003L635.6744495266461,202.90000000000003L642.9406977981066,183.05L644.4150090415912,199.5916666666667L646.0999361770024,192.97500000000002L652.9449526646101,206.20833333333337L654.4192639080949,209.5166666666667L656.2094989894692,202.90000000000003L662.8438995851504,209.5166666666667L664.739442612488,199.5916666666667L666.4243697478992,199.5916666666667L673.1640782895436,196.28333333333336L674.954313370918,199.5916666666667L676.8498563982555,192.97500000000002L683.9054887777895,183.05L685.4851079672376,189.66666666666669L687.1700351026486,196.28333333333336L694.3309754281458,192.97500000000002L695.9105946175939,192.97500000000002L697.3849058610786,199.5916666666667L704.1246144027231,212.82500000000005L706.3360812679502,192.97500000000002L707.5997766195085,199.5916666666667L714.2341772151899,202.90000000000003L716.8668758642698,189.66666666666669L717.7093394319753,202.90000000000003L724.9755877034358,183.05L725.080895649399,183.05L727.6082863525157,183.05L728.1348260823316,192.97500000000002L735.1904584618658,202.90000000000003L737.7178491649825,202.90000000000003L738.560312732688,192.97500000000002L744.9840974364429,212.82500000000005L748.1433358153388,192.97500000000002L748.7751834911179,199.5916666666667L755.7255079246888,183.05L758.6741304116583,189.66666666666669L759.621901925327,179.74166666666667L766.2563025210084,189.66666666666669L769.4155408999043,183.05L770.5739283054994,176.43333333333334L776.7870971173279,189.66666666666669L780.051643442187,186.35833333333335L781.6312626316349,173.125L787.9497393894267,173.125L790.898361876396,179.74166666666667L792.6885969577704,173.125L798.7964578236357,179.74166666666667L801.4291564727156,189.66666666666669L803.4300074460164,183.05L809.5378683118817,183.05L812.2758749069247,179.74166666666667L814.1714179342623,183.05L816.698808637379,189.66666666666669L820.0686629082012,189.66666666666669L822.4907456653547,199.5916666666667L824.4915966386554,196.28333333333336L830.4941495585575,192.97500000000002L833.0215402616742,192.97500000000002L834.7064673970854,199.5916666666667L840.8143282629508,196.28333333333336L843.3417189660674,196.28333333333336L845.0266461014785,196.28333333333336L851.2398149133071,192.97500000000002L853.9778215083502,186.35833333333335L855.4521327518348,192.97500000000002L861.454685671737,199.5916666666667L863.7714604829273,212.82500000000005L865.245771726412,216.13333333333333L871.7748643761302,196.28333333333336L873.7757153494309,206.20833333333337L875.7765663227316,192.97500000000002L882.0950430805233,196.28333333333336L884.095894053824,196.28333333333336L885.8861291351983,202.90000000000003L892.3099138389532,199.5916666666667L894.5213807041804,192.97500000000002L896.1009998936283,199.5916666666667L902.8407084352729,189.66666666666669L904.4203276247207,209.5166666666667L904.8415594085735,196.28333333333336L906.5264865439847,196.28333333333336L913.0555791937028,199.5916666666667L914.845814275077,192.97500000000002L916.5307414104882,206.20833333333337L923.1651420061695,202.90000000000003L925.3766088713966,189.66666666666669L926.8509201148813,196.28333333333336L933.4853207105626,196.28333333333336L935.4861716838634,202.90000000000003L936.855174981385,206.20833333333337L943.5948835230295,202.90000000000003L946.1222742261461,186.35833333333335L947.3859695777045,189.66666666666669L954.125678119349,189.66666666666669L956.4424529305393,196.28333333333336L957.4955323901712,202.90000000000003L964.3405488777789,199.5916666666667L966.7626316349324,196.28333333333336L967.6050952026379,202.90000000000003L974.9766514200617,186.35833333333335L976.5562706095096,212.82500000000005L977.7146580151048,202.90000000000003L985.7180619083076,183.05L987.2976810977555,183.05L988.2454526114243,189.66666666666669L993.7214658015105,196.28333333333336L996.0382406127007,196.28333333333336L997.4072439102223,202.90000000000003L998.6709392617806,192.97500000000002L1006.2531113711307,199.5916666666667L1007.516806722689,202.90000000000003L1009.3070418040634,186.35833333333335L1016.7839059674502,189.66666666666669L1018.1529092649718,186.35833333333335L1019.9431443463461,186.35833333333335L1026.5775449420275,212.82500000000005L1028.3677800234018,199.5916666666667L1030.3686309967024,192.97500000000002L1036.7924157004572,202.90000000000003L1038.687958727795,196.28333333333336L1041.2153494309116,179.74166666666667L1047.955057972556,169.81666666666666L1049.7452930539303,173.125L1052.4832996489736,166.50833333333338L1058.696468460802,183.05L1060.5920114881396,179.74166666666667L1063.435326029146,176.43333333333334L1069.437878949048,183.05L1071.2281140304221,186.35833333333335L1073.9661206254655,189.66666666666669L1080.0739814913306,189.66666666666669L1081.8642165727051,186.35833333333335L1083.9703754919688,206.20833333333337L1084.8128390596744,199.5916666666667L1090.2888522497606,199.5916666666667L1092.1843952770982,196.28333333333336L1094.0799383044357,202.90000000000003L1100.81964684608,189.66666666666669L1102.6098819274544,192.97500000000002L1104.0841931709392,206.20833333333337L1111.4557493883628,186.35833333333335L1113.140676523774,189.66666666666669L1114.720295713222,186.35833333333335L1122.0918519306456,186.35833333333335L1123.1449313902776,206.20833333333337L1125.1457823635783,192.97500000000002L1132.517338581002,192.97500000000002L1133.3598021487076,199.5916666666667L1135.6765769598978,189.66666666666669L1142.8375172853953,199.5916666666667L1143.6799808531007,199.5916666666667L1145.7861397723645,202.90000000000003L1153.6842357196042,183.05L1154.2107754494202,189.66666666666669L1156.316934368684,189.66666666666669L1164.320338261887,186.35833333333335L1164.6362620997766,192.97500000000002L1166.3211892351878,206.20833333333337L1173.2715136687584,202.90000000000003L1174.429901074354,202.90000000000003L1175.167056696096,192.97500000000002L1176.5360599936175,199.5916666666667L1184.750079778747,196.28333333333336L1186.0137751303052,179.74166666666667L1187.382778427827,183.05L1195.1755664291031,192.97500000000002L1196.649877672588,186.35833333333335L1198.0188809701094,186.35833333333335L1205.3904371875333,199.5916666666667L1207.1806722689075,189.66666666666669L1208.0231358366132,206.20833333333337L1215.5,202.90000000000003L1215.5,520.5Z" stroke="none" stroke-width="0" fill-opacity="0" fill="#3366cc"></path></g><g><path d="M225.5,520.5L225.5,520.5L235.82017870439316,196.28333333333336L235.92548665035633,517.1916666666667L235.92548665035633,520.5L246.3509733007127,192.97500000000002L246.45628124667587,517.1916666666667L246.45628124667587,520.5L256.67115200510585,199.5916666666667L256.67115200510585,520.5L256.67115200510585,520.5L266.5700989256462,209.5166666666667L266.8860227635358,510.575L266.991330709499,517.1916666666667L276.67966173811294,216.13333333333333L276.99558557600255,510.575L276.99558557600255,520.5L281.83975109030956,368.31666666666666L286.6839166046165,368.31666666666666L287.4210722263589,497.3416666666667L287.4210722263589,520.5L296.4775555791937,235.98333333333335L297.32001914689926,494.03333333333336L297.63594298478887,510.575L306.69242633762366,235.98333333333335L307.53488990532924,494.03333333333336L308.1667375811084,500.65L317.0126050420168,242.60000000000002L317.74976066375916,497.3416666666667L318.59222423146474,494.03333333333336L326.91155196255716,259.1416666666667L327.5433996383363,500.65L328.7017870439315,484.10833333333335L337.02111477502393,259.1416666666667L337.7582703967663,497.3416666666667L339.12727369428785,477.4916666666667L347.34129347941706,262.45L348.07844910115944,497.3416666666667L349.3421444527178,480.8L358.1880119136262,242.60000000000002L358.609243697479,507.26666666666665L359.7676311030741,484.10833333333335L368.297574726093,252.52500000000003L368.71880650994575,507.26666666666665L369.4559621316881,497.3416666666667L369.8771939155409,507.26666666666665L378.5124454845229,249.2166666666667L378.8283693224125,510.575L379.98675672800766,484.10833333333335L388.83262418891604,242.60000000000002L389.04324008084245,513.8833333333333L390.6228592702904,470.875L398.73157110945647,265.7583333333333L399.1528028933092,507.26666666666665L400.94303797468353,464.2583333333333L408.8411339219232,272.375L409.262365705776,507.26666666666665L411.05260078715025,464.2583333333333L418.74008084246356,278.9916666666667L419.58254441016913,494.03333333333336L421.47808743750664,460.95L429.1655674928199,278.9916666666667L430.00803106052547,494.03333333333336L431.5876502499734,470.875L439.4857461972131,272.375L440.2229018189554,497.3416666666667L441.80252100840335,470.875L449.4900010637166,278.9916666666667L450.6483884693117,484.10833333333335L452.1226997127965,474.18333333333334L458.1252526326987,331.925L459.7048718221466,470.875L460.9685671737049,480.8L462.653494309116,467.56666666666666L469.91974258057655,292.225L470.9728220402085,487.4166666666667L472.65774917561964,467.56666666666666L480.2399212849697,282.3L480.977076906712,497.3416666666667L482.87261993404957,460.95L490.4547920433996,282.3L491.5078715030316,487.4166666666667L492.9821827465163,474.18333333333334L500.7749707477928,275.68333333333334L501.7227422614615,490.725L503.4076693968727,467.56666666666666L510.67391766833316,292.225L511.7269971279651,487.4166666666667L513.2013083714498,474.18333333333334L520.9940963727263,275.68333333333334L522.2577917242846,480.8L523.9427188596958,467.56666666666666L530.8930432932666,302.15L532.4726624827147,470.875L534.0522816721625,470.875L540.8972981597702,305.45833333333337L542.4769173492182,470.875L544.056536538666,470.875L546.8998510796723,431.175L551.006860972237,391.475L552.4811722157217,474.18333333333334L554.1660993511329,467.56666666666666L561.4323476225934,292.225L562.6960429741516,480.8L564.486278055526,464.2583333333333L571.4366024890969,302.15L573.0162216785448,470.875L574.3852249760664,477.4916666666667L581.5461653015636,295.53333333333336L583.1257844910116,470.875L584.3894798425699,480.8L591.8663440059568,285.60833333333335L593.2353473034783,477.4916666666667L594.6043506009999,477.4916666666667L601.7652909264972,295.53333333333336L603.5555260078715,464.2583333333333L605.0298372513562,474.18333333333334L612.0854696308903,298.8416666666667L614.0863206041911,457.64166666666665L615.3500159557493,480.8L621.9844165514307,312.07500000000005L624.1958834166578,451.025L625.5648867141792,477.4916666666667L632.1992873098607,312.07500000000005L634.2001382831613,457.64166666666665L635.2532177427934,487.4166666666667L635.6744495266461,507.26666666666665L642.9406977981066,292.225L644.4150090415912,474.18333333333334L646.0999361770024,467.56666666666666L652.9449526646101,305.45833333333337L654.4192639080949,474.18333333333334L656.2094989894692,464.2583333333333L662.8438995851504,312.07500000000005L664.739442612488,460.95L666.4243697478992,467.56666666666666L673.1640782895436,308.76666666666665L674.954313370918,464.2583333333333L676.8498563982555,460.95L683.9054887777895,298.8416666666667L685.4851079672376,470.875L687.1700351026486,467.56666666666666L694.3309754281458,295.53333333333336L695.9105946175939,470.875L697.3849058610786,474.18333333333334L704.1246144027231,308.76666666666665L706.3360812679502,451.025L707.5997766195085,480.8L714.2341772151899,312.07500000000005L716.8668758642698,437.7916666666667L717.7093394319753,494.03333333333336L724.9755877034358,292.225L725.080895649399,517.1916666666667L727.6082863525157,441.1L728.1348260823316,503.9583333333333L735.1904584618658,298.8416666666667L737.7178491649825,441.1L738.560312732688,494.03333333333336L744.9840974364429,318.6916666666667L748.1433358153388,421.25L748.7751834911179,500.65L755.7255079246888,302.15L758.6741304116583,427.8666666666667L759.621901925327,490.725L766.2563025210084,312.07500000000005L769.4155408999043,421.25L770.5739283054994,484.10833333333335L776.7870971173279,325.30833333333334L780.051643442187,417.94166666666666L781.6312626316349,470.875L787.9497393894267,322L790.898361876396,427.8666666666667L792.6885969577704,464.2583333333333L798.7964578236357,328.6166666666667L801.4291564727156,437.7916666666667L803.4300074460164,457.64166666666665L809.5378683118817,328.6166666666667L812.2758749069247,434.48333333333335L814.1714179342623,460.95L816.698808637379,441.1L820.0686629082012,414.6333333333333L822.4907456653547,444.4083333333333L824.4915966386554,457.64166666666665L830.4941495585575,331.925L833.0215402616742,441.1L834.7064673970854,467.56666666666666L840.8143282629508,328.6166666666667L843.3417189660674,441.1L845.0266461014785,467.56666666666666L851.2398149133071,325.30833333333334L853.9778215083502,434.48333333333335L855.4521327518348,474.18333333333334L861.454685671737,331.925L863.7714604829273,447.7166666666667L865.245771726412,474.18333333333334L871.7748643761302,315.3833333333333L873.7757153494309,457.64166666666665L875.7765663227316,457.64166666666665L882.0950430805233,322L884.095894053824,457.64166666666665L885.8861291351983,464.2583333333333L892.3099138389532,318.6916666666667L894.5213807041804,451.025L896.1009998936283,470.875L902.8407084352729,308.76666666666665L904.4203276247207,470.875L904.8415594085735,507.26666666666665L906.5264865439847,467.56666666666666L913.0555791937028,315.3833333333333L914.845814275077,464.2583333333333L916.5307414104882,467.56666666666666L923.1651420061695,312.07500000000005L925.3766088713966,451.025L926.8509201148813,474.18333333333334L933.4853207105626,312.07500000000005L935.4861716838634,457.64166666666665L936.855174981385,477.4916666666667L943.5948835230295,308.76666666666665L946.1222742261461,441.1L947.3859695777045,480.8L954.125678119349,308.76666666666665L956.4424529305393,447.7166666666667L957.4955323901712,487.4166666666667L964.3405488777789,305.45833333333337L966.7626316349324,444.4083333333333L967.6050952026379,494.03333333333336L974.9766514200617,288.9166666666667L976.5562706095096,470.875L977.7146580151048,484.10833333333335L985.7180619083076,269.0666666666667L987.2976810977555,470.875L988.2454526114243,490.725L993.7214658015105,348.4666666666667L996.0382406127007,447.7166666666667L997.4072439102223,477.4916666666667L998.6709392617806,480.8L1006.2531113711307,282.3L1007.516806722689,480.8L1009.3070418040634,464.2583333333333L1016.7839059674502,285.60833333333335L1018.1529092649718,477.4916666666667L1019.9431443463461,464.2583333333333L1026.5775449420275,312.07500000000005L1028.3677800234018,464.2583333333333L1030.3686309967024,457.64166666666665L1036.7924157004572,318.6916666666667L1038.687958727795,460.95L1041.2153494309116,441.1L1047.955057972556,308.76666666666665L1049.7452930539303,464.2583333333333L1052.4832996489736,434.48333333333335L1058.696468460802,325.30833333333334L1060.5920114881396,460.95L1063.435326029146,431.175L1069.437878949048,331.925L1071.2281140304221,464.2583333333333L1073.9661206254655,434.48333333333335L1080.0739814913306,328.6166666666667L1081.8642165727051,464.2583333333333L1083.9703754919688,454.33333333333337L1084.8128390596744,494.03333333333336L1090.2888522497606,348.4666666666667L1092.1843952770982,460.95L1094.0799383044357,460.95L1100.81964684608,308.76666666666665L1102.6098819274544,464.2583333333333L1104.0841931709392,474.18333333333334L1111.4557493883628,288.9166666666667L1113.140676523774,467.56666666666666L1114.720295713222,470.875L1122.0918519306456,288.9166666666667L1123.1449313902776,487.4166666666667L1125.1457823635783,457.64166666666665L1132.517338581002,288.9166666666667L1133.3598021487076,494.03333333333336L1135.6765769598978,447.7166666666667L1142.8375172853953,295.53333333333336L1143.6799808531007,494.03333333333336L1145.7861397723645,454.33333333333337L1153.6842357196042,272.375L1154.2107754494202,503.9583333333333L1156.316934368684,454.33333333333337L1164.320338261887,269.0666666666667L1164.6362620997766,510.575L1166.3211892351878,467.56666666666666L1173.2715136687584,302.15L1174.429901074354,484.10833333333335L1175.167056696096,497.3416666666667L1176.5360599936175,477.4916666666667L1184.750079778747,262.45L1186.0137751303052,480.8L1187.382778427827,477.4916666666667L1195.1755664291031,275.68333333333334L1196.649877672588,474.18333333333334L1198.0188809701094,477.4916666666667L1205.3904371875333,288.9166666666667L1207.1806722689075,464.2583333333333L1208.0231358366132,494.03333333333336L1215.5,285.60833333333335L1215.5,520.5Z" stroke="none" stroke-width="0" fill-opacity="0" fill="#dc3912"></path></g></g><g><rect x="225" y="123" width="1" height="398" stroke="none" stroke-width="0" fill="#333333"></rect><rect x="225" y="520" width="991" height="1" stroke="none" stroke-width="0" fill="#333333"></rect><rect x="225" y="520" width="991" height="1" stroke="none" stroke-width="0" fill="#333333"></rect></g><g><path d="M225.5,196.28333333333336L235.82017870439316,196.28333333333336L235.92548665035633,192.97500000000002L235.92548665035633,192.97500000000002L246.3509733007127,189.66666666666669L246.45628124667587,192.97500000000002L246.45628124667587,192.97500000000002L256.67115200510585,199.5916666666667L256.67115200510585,199.5916666666667L256.67115200510585,199.5916666666667L266.5700989256462,209.5166666666667L266.8860227635358,199.5916666666667L266.991330709499,196.28333333333336L276.67966173811294,202.90000000000003L276.99558557600255,206.20833333333337L276.99558557600255,206.20833333333337L281.83975109030956,206.20833333333337L286.6839166046165,206.20833333333337L287.4210722263589,196.28333333333336L287.4210722263589,192.97500000000002L296.4775555791937,212.82500000000005L297.32001914689926,209.5166666666667L297.63594298478887,199.5916666666667L306.69242633762366,199.5916666666667L307.53488990532924,202.90000000000003L308.1667375811084,189.66666666666669L317.0126050420168,196.28333333333336L317.74976066375916,199.5916666666667L318.59222423146474,192.97500000000002L326.91155196255716,209.5166666666667L327.5433996383363,212.82500000000005L328.7017870439315,202.90000000000003L337.02111477502393,202.90000000000003L337.7582703967663,199.5916666666667L339.12727369428785,192.97500000000002L347.34129347941706,196.28333333333336L348.07844910115944,196.28333333333336L349.3421444527178,199.5916666666667L358.1880119136262,179.74166666666667L358.609243697479,189.66666666666669L359.7676311030741,192.97500000000002L368.297574726093,202.90000000000003L368.71880650994575,202.90000000000003L369.4559621316881,202.90000000000003L369.8771939155409,202.90000000000003L378.5124454845229,202.90000000000003L378.8283693224125,202.90000000000003L379.98675672800766,202.90000000000003L388.83262418891604,196.28333333333336L389.04324008084245,202.90000000000003L390.6228592702904,186.35833333333335L398.73157110945647,209.5166666666667L399.1528028933092,202.90000000000003L400.94303797468353,196.28333333333336L408.8411339219232,202.90000000000003L409.262365705776,202.90000000000003L411.05260078715025,206.20833333333337L418.74008084246356,209.5166666666667L419.58254441016913,196.28333333333336L421.47808743750664,192.97500000000002L429.1655674928199,192.97500000000002L430.00803106052547,192.97500000000002L431.5876502499734,202.90000000000003L439.4857461972131,196.28333333333336L440.2229018189554,199.5916666666667L441.80252100840335,199.5916666666667L449.4900010637166,206.20833333333337L450.6483884693117,192.97500000000002L452.1226997127965,196.28333333333336L458.1252526326987,199.5916666666667L459.7048718221466,199.5916666666667L460.9685671737049,196.28333333333336L462.653494309116,189.66666666666669L469.91974258057655,199.5916666666667L470.9728220402085,206.20833333333337L472.65774917561964,206.20833333333337L480.2399212849697,196.28333333333336L480.977076906712,206.20833333333337L482.87261993404957,199.5916666666667L490.4547920433996,199.5916666666667L491.5078715030316,189.66666666666669L492.9821827465163,202.90000000000003L500.7749707477928,196.28333333333336L501.7227422614615,199.5916666666667L503.4076693968727,192.97500000000002L510.67391766833316,212.82500000000005L511.7269971279651,206.20833333333337L513.2013083714498,212.82500000000005L520.9940963727263,196.28333333333336L522.2577917242846,192.97500000000002L523.9427188596958,183.05L530.8930432932666,209.5166666666667L532.4726624827147,199.5916666666667L534.0522816721625,202.90000000000003L540.8972981597702,206.20833333333337L542.4769173492182,206.20833333333337L544.056536538666,206.20833333333337L546.8998510796723,202.90000000000003L551.006860972237,202.90000000000003L552.4811722157217,209.5166666666667L554.1660993511329,202.90000000000003L561.4323476225934,196.28333333333336L562.6960429741516,199.5916666666667L564.486278055526,196.28333333333336L571.4366024890969,206.20833333333337L573.0162216785448,196.28333333333336L574.3852249760664,209.5166666666667L581.5461653015636,202.90000000000003L583.1257844910116,202.90000000000003L584.3894798425699,209.5166666666667L591.8663440059568,196.28333333333336L593.2353473034783,202.90000000000003L594.6043506009999,202.90000000000003L601.7652909264972,209.5166666666667L603.5555260078715,199.5916666666667L605.0298372513562,196.28333333333336L612.0854696308903,196.28333333333336L614.0863206041911,189.66666666666669L615.3500159557493,196.28333333333336L621.9844165514307,209.5166666666667L624.1958834166578,202.90000000000003L625.5648867141792,199.5916666666667L632.1992873098607,199.5916666666667L634.2001382831613,206.20833333333337L635.2532177427934,202.90000000000003L635.6744495266461,202.90000000000003L642.9406977981066,183.05L644.4150090415912,199.5916666666667L646.0999361770024,192.97500000000002L652.9449526646101,206.20833333333337L654.4192639080949,209.5166666666667L656.2094989894692,202.90000000000003L662.8438995851504,209.5166666666667L664.739442612488,199.5916666666667L666.4243697478992,199.5916666666667L673.1640782895436,196.28333333333336L674.954313370918,199.5916666666667L676.8498563982555,192.97500000000002L683.9054887777895,183.05L685.4851079672376,189.66666666666669L687.1700351026486,196.28333333333336L694.3309754281458,192.97500000000002L695.9105946175939,192.97500000000002L697.3849058610786,199.5916666666667L704.1246144027231,212.82500000000005L706.3360812679502,192.97500000000002L707.5997766195085,199.5916666666667L714.2341772151899,202.90000000000003L716.8668758642698,189.66666666666669L717.7093394319753,202.90000000000003L724.9755877034358,183.05L725.080895649399,183.05L727.6082863525157,183.05L728.1348260823316,192.97500000000002L735.1904584618658,202.90000000000003L737.7178491649825,202.90000000000003L738.560312732688,192.97500000000002L744.9840974364429,212.82500000000005L748.1433358153388,192.97500000000002L748.7751834911179,199.5916666666667L755.7255079246888,183.05L758.6741304116583,189.66666666666669L759.621901925327,179.74166666666667L766.2563025210084,189.66666666666669L769.4155408999043,183.05L770.5739283054994,176.43333333333334L776.7870971173279,189.66666666666669L780.051643442187,186.35833333333335L781.6312626316349,173.125L787.9497393894267,173.125L790.898361876396,179.74166666666667L792.6885969577704,173.125L798.7964578236357,179.74166666666667L801.4291564727156,189.66666666666669L803.4300074460164,183.05L809.5378683118817,183.05L812.2758749069247,179.74166666666667L814.1714179342623,183.05L816.698808637379,189.66666666666669L820.0686629082012,189.66666666666669L822.4907456653547,199.5916666666667L824.4915966386554,196.28333333333336L830.4941495585575,192.97500000000002L833.0215402616742,192.97500000000002L834.7064673970854,199.5916666666667L840.8143282629508,196.28333333333336L843.3417189660674,196.28333333333336L845.0266461014785,196.28333333333336L851.2398149133071,192.97500000000002L853.9778215083502,186.35833333333335L855.4521327518348,192.97500000000002L861.454685671737,199.5916666666667L863.7714604829273,212.82500000000005L865.245771726412,216.13333333333333L871.7748643761302,196.28333333333336L873.7757153494309,206.20833333333337L875.7765663227316,192.97500000000002L882.0950430805233,196.28333333333336L884.095894053824,196.28333333333336L885.8861291351983,202.90000000000003L892.3099138389532,199.5916666666667L894.5213807041804,192.97500000000002L896.1009998936283,199.5916666666667L902.8407084352729,189.66666666666669L904.4203276247207,209.5166666666667L904.8415594085735,196.28333333333336L906.5264865439847,196.28333333333336L913.0555791937028,199.5916666666667L914.845814275077,192.97500000000002L916.5307414104882,206.20833333333337L923.1651420061695,202.90000000000003L925.3766088713966,189.66666666666669L926.8509201148813,196.28333333333336L933.4853207105626,196.28333333333336L935.4861716838634,202.90000000000003L936.855174981385,206.20833333333337L943.5948835230295,202.90000000000003L946.1222742261461,186.35833333333335L947.3859695777045,189.66666666666669L954.125678119349,189.66666666666669L956.4424529305393,196.28333333333336L957.4955323901712,202.90000000000003L964.3405488777789,199.5916666666667L966.7626316349324,196.28333333333336L967.6050952026379,202.90000000000003L974.9766514200617,186.35833333333335L976.5562706095096,212.82500000000005L977.7146580151048,202.90000000000003L985.7180619083076,183.05L987.2976810977555,183.05L988.2454526114243,189.66666666666669L993.7214658015105,196.28333333333336L996.0382406127007,196.28333333333336L997.4072439102223,202.90000000000003L998.6709392617806,192.97500000000002L1006.2531113711307,199.5916666666667L1007.516806722689,202.90000000000003L1009.3070418040634,186.35833333333335L1016.7839059674502,189.66666666666669L1018.1529092649718,186.35833333333335L1019.9431443463461,186.35833333333335L1026.5775449420275,212.82500000000005L1028.3677800234018,199.5916666666667L1030.3686309967024,192.97500000000002L1036.7924157004572,202.90000000000003L1038.687958727795,196.28333333333336L1041.2153494309116,179.74166666666667L1047.955057972556,169.81666666666666L1049.7452930539303,173.125L1052.4832996489736,166.50833333333338L1058.696468460802,183.05L1060.5920114881396,179.74166666666667L1063.435326029146,176.43333333333334L1069.437878949048,183.05L1071.2281140304221,186.35833333333335L1073.9661206254655,189.66666666666669L1080.0739814913306,189.66666666666669L1081.8642165727051,186.35833333333335L1083.9703754919688,206.20833333333337L1084.8128390596744,199.5916666666667L1090.2888522497606,199.5916666666667L1092.1843952770982,196.28333333333336L1094.0799383044357,202.90000000000003L1100.81964684608,189.66666666666669L1102.6098819274544,192.97500000000002L1104.0841931709392,206.20833333333337L1111.4557493883628,186.35833333333335L1113.140676523774,189.66666666666669L1114.720295713222,186.35833333333335L1122.0918519306456,186.35833333333335L1123.1449313902776,206.20833333333337L1125.1457823635783,192.97500000000002L1132.517338581002,192.97500000000002L1133.3598021487076,199.5916666666667L1135.6765769598978,189.66666666666669L1142.8375172853953,199.5916666666667L1143.6799808531007,199.5916666666667L1145.7861397723645,202.90000000000003L1153.6842357196042,183.05L1154.2107754494202,189.66666666666669L1156.316934368684,189.66666666666669L1164.320338261887,186.35833333333335L1164.6362620997766,192.97500000000002L1166.3211892351878,206.20833333333337L1173.2715136687584,202.90000000000003L1174.429901074354,202.90000000000003L1175.167056696096,192.97500000000002L1176.5360599936175,199.5916666666667L1184.750079778747,196.28333333333336L1186.0137751303052,179.74166666666667L1187.382778427827,183.05L1195.1755664291031,192.97500000000002L1196.649877672588,186.35833333333335L1198.0188809701094,186.35833333333335L1205.3904371875333,199.5916666666667L1207.1806722689075,189.66666666666669L1208.0231358366132,206.20833333333337L1215.5,202.90000000000003" stroke="#3366cc" stroke-width="1" fill-opacity="1" fill="none"></path><path d="M225.5,520.5L235.82017870439316,196.28333333333336L235.92548665035633,517.1916666666667L235.92548665035633,520.5L246.3509733007127,192.97500000000002L246.45628124667587,517.1916666666667L246.45628124667587,520.5L256.67115200510585,199.5916666666667L256.67115200510585,520.5L256.67115200510585,520.5L266.5700989256462,209.5166666666667L266.8860227635358,510.575L266.991330709499,517.1916666666667L276.67966173811294,216.13333333333333L276.99558557600255,510.575L276.99558557600255,520.5L281.83975109030956,368.31666666666666L286.6839166046165,368.31666666666666L287.4210722263589,497.3416666666667L287.4210722263589,520.5L296.4775555791937,235.98333333333335L297.32001914689926,494.03333333333336L297.63594298478887,510.575L306.69242633762366,235.98333333333335L307.53488990532924,494.03333333333336L308.1667375811084,500.65L317.0126050420168,242.60000000000002L317.74976066375916,497.3416666666667L318.59222423146474,494.03333333333336L326.91155196255716,259.1416666666667L327.5433996383363,500.65L328.7017870439315,484.10833333333335L337.02111477502393,259.1416666666667L337.7582703967663,497.3416666666667L339.12727369428785,477.4916666666667L347.34129347941706,262.45L348.07844910115944,497.3416666666667L349.3421444527178,480.8L358.1880119136262,242.60000000000002L358.609243697479,507.26666666666665L359.7676311030741,484.10833333333335L368.297574726093,252.52500000000003L368.71880650994575,507.26666666666665L369.4559621316881,497.3416666666667L369.8771939155409,507.26666666666665L378.5124454845229,249.2166666666667L378.8283693224125,510.575L379.98675672800766,484.10833333333335L388.83262418891604,242.60000000000002L389.04324008084245,513.8833333333333L390.6228592702904,470.875L398.73157110945647,265.7583333333333L399.1528028933092,507.26666666666665L400.94303797468353,464.2583333333333L408.8411339219232,272.375L409.262365705776,507.26666666666665L411.05260078715025,464.2583333333333L418.74008084246356,278.9916666666667L419.58254441016913,494.03333333333336L421.47808743750664,460.95L429.1655674928199,278.9916666666667L430.00803106052547,494.03333333333336L431.5876502499734,470.875L439.4857461972131,272.375L440.2229018189554,497.3416666666667L441.80252100840335,470.875L449.4900010637166,278.9916666666667L450.6483884693117,484.10833333333335L452.1226997127965,474.18333333333334L458.1252526326987,331.925L459.7048718221466,470.875L460.9685671737049,480.8L462.653494309116,467.56666666666666L469.91974258057655,292.225L470.9728220402085,487.4166666666667L472.65774917561964,467.56666666666666L480.2399212849697,282.3L480.977076906712,497.3416666666667L482.87261993404957,460.95L490.4547920433996,282.3L491.5078715030316,487.4166666666667L492.9821827465163,474.18333333333334L500.7749707477928,275.68333333333334L501.7227422614615,490.725L503.4076693968727,467.56666666666666L510.67391766833316,292.225L511.7269971279651,487.4166666666667L513.2013083714498,474.18333333333334L520.9940963727263,275.68333333333334L522.2577917242846,480.8L523.9427188596958,467.56666666666666L530.8930432932666,302.15L532.4726624827147,470.875L534.0522816721625,470.875L540.8972981597702,305.45833333333337L542.4769173492182,470.875L544.056536538666,470.875L546.8998510796723,431.175L551.006860972237,391.475L552.4811722157217,474.18333333333334L554.1660993511329,467.56666666666666L561.4323476225934,292.225L562.6960429741516,480.8L564.486278055526,464.2583333333333L571.4366024890969,302.15L573.0162216785448,470.875L574.3852249760664,477.4916666666667L581.5461653015636,295.53333333333336L583.1257844910116,470.875L584.3894798425699,480.8L591.8663440059568,285.60833333333335L593.2353473034783,477.4916666666667L594.6043506009999,477.4916666666667L601.7652909264972,295.53333333333336L603.5555260078715,464.2583333333333L605.0298372513562,474.18333333333334L612.0854696308903,298.8416666666667L614.0863206041911,457.64166666666665L615.3500159557493,480.8L621.9844165514307,312.07500000000005L624.1958834166578,451.025L625.5648867141792,477.4916666666667L632.1992873098607,312.07500000000005L634.2001382831613,457.64166666666665L635.2532177427934,487.4166666666667L635.6744495266461,507.26666666666665L642.9406977981066,292.225L644.4150090415912,474.18333333333334L646.0999361770024,467.56666666666666L652.9449526646101,305.45833333333337L654.4192639080949,474.18333333333334L656.2094989894692,464.2583333333333L662.8438995851504,312.07500000000005L664.739442612488,460.95L666.4243697478992,467.56666666666666L673.1640782895436,308.76666666666665L674.954313370918,464.2583333333333L676.8498563982555,460.95L683.9054887777895,298.8416666666667L685.4851079672376,470.875L687.1700351026486,467.56666666666666L694.3309754281458,295.53333333333336L695.9105946175939,470.875L697.3849058610786,474.18333333333334L704.1246144027231,308.76666666666665L706.3360812679502,451.025L707.5997766195085,480.8L714.2341772151899,312.07500000000005L716.8668758642698,437.7916666666667L717.7093394319753,494.03333333333336L724.9755877034358,292.225L725.080895649399,517.1916666666667L727.6082863525157,441.1L728.1348260823316,503.9583333333333L735.1904584618658,298.8416666666667L737.7178491649825,441.1L738.560312732688,494.03333333333336L744.9840974364429,318.6916666666667L748.1433358153388,421.25L748.7751834911179,500.65L755.7255079246888,302.15L758.6741304116583,427.8666666666667L759.621901925327,490.725L766.2563025210084,312.07500000000005L769.4155408999043,421.25L770.5739283054994,484.10833333333335L776.7870971173279,325.30833333333334L780.051643442187,417.94166666666666L781.6312626316349,470.875L787.9497393894267,322L790.898361876396,427.8666666666667L792.6885969577704,464.2583333333333L798.7964578236357,328.6166666666667L801.4291564727156,437.7916666666667L803.4300074460164,457.64166666666665L809.5378683118817,328.6166666666667L812.2758749069247,434.48333333333335L814.1714179342623,460.95L816.698808637379,441.1L820.0686629082012,414.6333333333333L822.4907456653547,444.4083333333333L824.4915966386554,457.64166666666665L830.4941495585575,331.925L833.0215402616742,441.1L834.7064673970854,467.56666666666666L840.8143282629508,328.6166666666667L843.3417189660674,441.1L845.0266461014785,467.56666666666666L851.2398149133071,325.30833333333334L853.9778215083502,434.48333333333335L855.4521327518348,474.18333333333334L861.454685671737,331.925L863.7714604829273,447.7166666666667L865.245771726412,474.18333333333334L871.7748643761302,315.3833333333333L873.7757153494309,457.64166666666665L875.7765663227316,457.64166666666665L882.0950430805233,322L884.095894053824,457.64166666666665L885.8861291351983,464.2583333333333L892.3099138389532,318.6916666666667L894.5213807041804,451.025L896.1009998936283,470.875L902.8407084352729,308.76666666666665L904.4203276247207,470.875L904.8415594085735,507.26666666666665L906.5264865439847,467.56666666666666L913.0555791937028,315.3833333333333L914.845814275077,464.2583333333333L916.5307414104882,467.56666666666666L923.1651420061695,312.07500000000005L925.3766088713966,451.025L926.8509201148813,474.18333333333334L933.4853207105626,312.07500000000005L935.4861716838634,457.64166666666665L936.855174981385,477.4916666666667L943.5948835230295,308.76666666666665L946.1222742261461,441.1L947.3859695777045,480.8L954.125678119349,308.76666666666665L956.4424529305393,447.7166666666667L957.4955323901712,487.4166666666667L964.3405488777789,305.45833333333337L966.7626316349324,444.4083333333333L967.6050952026379,494.03333333333336L974.9766514200617,288.9166666666667L976.5562706095096,470.875L977.7146580151048,484.10833333333335L985.7180619083076,269.0666666666667L987.2976810977555,470.875L988.2454526114243,490.725L993.7214658015105,348.4666666666667L996.0382406127007,447.7166666666667L997.4072439102223,477.4916666666667L998.6709392617806,480.8L1006.2531113711307,282.3L1007.516806722689,480.8L1009.3070418040634,464.2583333333333L1016.7839059674502,285.60833333333335L1018.1529092649718,477.4916666666667L1019.9431443463461,464.2583333333333L1026.5775449420275,312.07500000000005L1028.3677800234018,464.2583333333333L1030.3686309967024,457.64166666666665L1036.7924157004572,318.6916666666667L1038.687958727795,460.95L1041.2153494309116,441.1L1047.955057972556,308.76666666666665L1049.7452930539303,464.2583333333333L1052.4832996489736,434.48333333333335L1058.696468460802,325.30833333333334L1060.5920114881396,460.95L1063.435326029146,431.175L1069.437878949048,331.925L1071.2281140304221,464.2583333333333L1073.9661206254655,434.48333333333335L1080.0739814913306,328.6166666666667L1081.8642165727051,464.2583333333333L1083.9703754919688,454.33333333333337L1084.8128390596744,494.03333333333336L1090.2888522497606,348.4666666666667L1092.1843952770982,460.95L1094.0799383044357,460.95L1100.81964684608,308.76666666666665L1102.6098819274544,464.2583333333333L1104.0841931709392,474.18333333333334L1111.4557493883628,288.9166666666667L1113.140676523774,467.56666666666666L1114.720295713222,470.875L1122.0918519306456,288.9166666666667L1123.1449313902776,487.4166666666667L1125.1457823635783,457.64166666666665L1132.517338581002,288.9166666666667L1133.3598021487076,494.03333333333336L1135.6765769598978,447.7166666666667L1142.8375172853953,295.53333333333336L1143.6799808531007,494.03333333333336L1145.7861397723645,454.33333333333337L1153.6842357196042,272.375L1154.2107754494202,503.9583333333333L1156.316934368684,454.33333333333337L1164.320338261887,269.0666666666667L1164.6362620997766,510.575L1166.3211892351878,467.56666666666666L1173.2715136687584,302.15L1174.429901074354,484.10833333333335L1175.167056696096,497.3416666666667L1176.5360599936175,477.4916666666667L1184.750079778747,262.45L1186.0137751303052,480.8L1187.382778427827,477.4916666666667L1195.1755664291031,275.68333333333334L1196.649877672588,474.18333333333334L1198.0188809701094,477.4916666666667L1205.3904371875333,288.9166666666667L1207.1806722689075,464.2583333333333L1208.0231358366132,494.03333333333336L1215.5,285.60833333333335" stroke="#dc3912" stroke-width="1" fill-opacity="1" fill="none"></path></g></g><g></g><g><g><text text-anchor="middle" x="297.0040953090097" y="544.6" font-family="Arial" font-size="16" stroke="none" stroke-width="0" fill="#444444">1000</text></g><g><text text-anchor="middle" x="507.61998723540046" y="544.6" font-family="Arial" font-size="16" stroke="none" stroke-width="0" fill="#444444">3000</text></g><g><text text-anchor="middle" x="718.2358791617912" y="544.6" font-family="Arial" font-size="16" stroke="none" stroke-width="0" fill="#444444">5000</text></g><g><text text-anchor="middle" x="928.8517710881821" y="544.6" font-family="Arial" font-size="16" stroke="none" stroke-width="0" fill="#444444">7000</text></g><g><text text-anchor="middle" x="1139.4676630145727" y="544.6" font-family="Arial" font-size="16" stroke="none" stroke-width="0" fill="#444444">9000</text></g><g><text text-anchor="end" x="209" y="526.1" font-family="Arial" font-size="16" stroke="none" stroke-width="0" fill="#444444">0</text></g><g><text text-anchor="end" x="209" y="426.85" font-family="Arial" font-size="16" stroke="none" stroke-width="0" fill="#444444">30</text></g><g><text text-anchor="end" x="209" y="327.6" font-family="Arial" font-size="16" stroke="none" stroke-width="0" fill="#444444">60</text></g><g><text text-anchor="end" x="209" y="228.35" font-family="Arial" font-size="16" stroke="none" stroke-width="0" fill="#444444">90</text></g><g><text text-anchor="end" x="209" y="129.1" font-family="Arial" font-size="16" stroke="none" stroke-width="0" fill="#444444">120</text></g><g><text text-anchor="start" x="1232" y="526.1" font-family="Arial" font-size="16" stroke="none" stroke-width="0" fill="#444444">0</text></g><g><text text-anchor="start" x="1232" y="426.85" font-family="Arial" font-size="16" stroke="none" stroke-width="0" fill="#444444">30</text></g><g><text text-anchor="start" x="1232" y="327.6" font-family="Arial" font-size="16" stroke="none" stroke-width="0" fill="#444444">60</text></g><g><text text-anchor="start" x="1232" y="228.35" font-family="Arial" font-size="16" stroke="none" stroke-width="0" fill="#444444">90</text></g><g><text text-anchor="start" x="1232" y="129.1" font-family="Arial" font-size="16" stroke="none" stroke-width="0" fill="#444444">120</text></g></g><g><rect x="225" y="133" width="132" height="16" stroke="none" stroke-width="0" fill-opacity="0" fill="#ffffff"></rect><g><rect x="225" y="133" width="53" height="16" stroke="none" stroke-width="0" fill-opacity="0" fill="#ffffff"></rect><g><g><text text-anchor="start" x="247" y="146.6" font-family="Arial" font-size="16" stroke="#ffffff" stroke-width="3" fill="#222222" aria-hidden="true">RTT</text><text text-anchor="start" x="247" y="146.6" font-family="Arial" font-size="16" stroke="none" stroke-width="0" fill="#222222">RTT</text></g></g><rect x="225" y="133" width="16" height="16" stroke="#ffffff" stroke-width="1" fill="#3366cc"></rect></g><g><rect x="304" y="133" width="53" height="16" stroke="none" stroke-width="0" fill-opacity="0" fill="#ffffff"></rect><g><g><text text-anchor="start" x="326" y="146.6" font-family="Arial" font-size="16" stroke="#ffffff" stroke-width="3" fill="#222222" aria-hidden="true">Darr</text><text text-anchor="start" x="326" y="146.6" font-family="Arial" font-size="16" stroke="none" stroke-width="0" fill="#222222">Darr</text></g></g><rect x="304" y="133" width="16" height="16" stroke="#ffffff" stroke-width="1" fill="#dc3912"></rect></g></g></g><g><g><text text-anchor="middle" x="720.5" y="601.1" font-family="Arial" font-size="16" font-style="italic" stroke="none" stroke-width="0" fill="#222222">Time (ms)</text></g><g><text text-anchor="middle" x="96.6" y="322" font-family="Arial" font-size="16" font-style="italic" transform="rotate(-90 96.6 322)" stroke="none" stroke-width="0" fill="#222222">Darr (ms)</text></g><g><text text-anchor="middle" x="1355.1" y="322" font-family="Arial" font-size="16" font-style="italic" transform="rotate(-90 1355.1 322)" stroke="none" stroke-width="0" fill="#222222">RTT (ms)</text></g></g><g></g></svg>