<svg width="1440" height="644" aria-label="A chart." style="overflow: hidden;"><defs id="defs"><clipPath id="_ABSTRACT_RENDERER_ID_136"><rect x="225" y="123" width="991" height="398"></rect></clipPath></defs><rect x="0" y="0" width="1440" height="644" stroke="none" stroke-width="0" fill="#ffffff"></rect><g><rect x="225" y="123" width="991" height="398" stroke="none" stroke-width="0" fill-opacity="0" fill="#ffffff"></rect><g clip-path="url(#_ABSTRACT_RENDERER_ID_136)"><g><rect x="353" y="123" width="1" height="398" stroke="none" stroke-width="0" fill="#cccccc"></rect><rect x="539" y="123" width="1" height="398" stroke="none" stroke-width="0" fill="#cccccc"></rect><rect x="725" y="123" width="1" height="398" stroke="none" stroke-width="0" fill="#cccccc"></rect><rect x="911" y="123" width="1" height="398" stroke="none" stroke-width="0" fill="#cccccc"></rect><rect x="1098" y="123" width="1" height="398" stroke="none" stroke-width="0" fill="#cccccc"></rect><rect x="225" y="520" width="991" height="1" stroke="none" stroke-width="0" fill="#cccccc"></rect><rect x="225" y="421" width="991" height="1" stroke="none" stroke-width="0" fill="#cccccc"></rect><rect x="225" y="322" width="991" height="1" stroke="none" stroke-width="0" fill="#cccccc"></rect><rect x="225" y="222" width="991" height="1" stroke="none" stroke-width="0" fill="#cccccc"></rect><rect x="225" y="123" width="991" height="1" stroke="none" stroke-width="0" fill="#cccccc"></rect><rect x="225" y="520" width="991" height="1" stroke="none" stroke-width="0" fill="#cccccc"></rect><rect x="225" y="421" width="991" height="1" stroke="none" stroke-width="0" fill="#cccccc"></rect><rect x="225" y="322" width="991" height="1" stroke="none" stroke-width="0" fill="#cccccc"></rect><rect x="225" y="222" width="991" height="1" stroke="none" stroke-width="0" fill="#cccccc"></rect><rect x="225" y="123" width="991" height="1" stroke="none" stroke-width="0" fill="#cccccc"></rect></g><g><g><path d="M225.5,520.5L225.5,277.3375L243.9298608499436,277.3375L244.30218127115458,269.89374999999995L244.30218127115458,272.375L244.30218127115458,272.375L261.9874012786762,279.81875L262.91820233170364,272.375L263.10436254230916,272.375L263.2905227529146,269.89374999999995L280.9757427604363,267.4125L281.7203836028582,272.375L281.7203836028582,272.375L282.46502444528016,264.93125L299.2194433997744,277.3375L299.40560361037984,284.78125L299.7779240315908,279.81875L300.5225648740128,279.81875L318.3939450921399,267.4125L318.3939450921399,264.93125L319.1385859345619,262.45L319.69706656637834,264.93125L327.3296352012035,272.375L337.009966152689,272.375L337.009966152689,272.375L338.3130876269274,264.93125L339.0577284693494,262.45L356.18446784505454,264.93125L356.37062805566006,262.45L357.6737495298985,262.45L358.23223016171494,264.93125L374.80048890560363,274.85625L374.80048890560363,274.85625L376.6620910116585,267.4125L377.592892064686,262.45L393.6026701767582,269.89374999999995L393.6026701767582,269.89374999999995L395.6504324934186,267.4125L396.95355396765706,262.45L412.40485144791273,269.89374999999995L412.40485144791273,269.89374999999995L414.8249341857842,264.93125L416.31421587062806,262.45L431.0208725084618,274.85625L431.0208725084618,272.375L432.88247461451675,279.81875L434.37175629936064,279.81875L449.4507333584054,274.85625L449.4507333584054,274.85625L450.3815344114329,287.2625L452.4292967280933,279.81875L467.69443399774354,277.3375L467.69443399774354,277.3375L468.625235050771,277.3375L470.11451673561487,284.78125L485.7519744264761,279.81875L485.7519744264761,279.81875L486.8689356901091,277.3375L487.24125611132007,287.2625L487.61357653253106,287.2625L503.9956750658142,277.3375L503.9956750658142,277.3375L505.29879654005265,274.85625L506.4157578036856,272.375L521.3085746521249,289.74375L521.8670552839413,284.78125L523.7286573899962,274.85625L524.2871380218128,284.78125L539.179954870252,289.74375L539.3661150808575,279.81875L541.7861978187289,279.81875L544.0201203459947,257.48749999999995L557.6098157201956,277.3375L558.168296352012,269.89374999999995L560.5883790898833,269.89374999999995L563.9392628807823,257.48749999999995L575.4811959383227,282.29999999999995L576.7843174125611,272.375L579.9490409928544,262.45L584.9753666792027,242.59999999999997L593.3525761564498,282.29999999999995L595.2141782625047,274.85625L600.7989845806694,242.59999999999997L606.1976306882286,240.11874999999998L611.5962767957878,277.3375L616.2502820609252,240.11874999999998L621.6489281684844,242.59999999999997L626.4890936442272,250.04375L632.2600601729973,245.08124999999995L637.1002256487402,242.59999999999997L643.0573523881158,175.60625L647.5251974426476,175.60625L653.8546446032343,155.75624999999997L658.6948100789771,168.16249999999997L664.6519368183529,153.27499999999998L670.0505829259121,222.75L674.8907484016547,242.59999999999997L680.1032342986085,235.15625L685.3157201955622,245.08124999999995L690.155885671305,252.52499999999998L695.3683715682587,247.5625L701.3254983076345,237.6375L705.9795035727717,245.08124999999995L711.5643098909364,235.15625L716.7767957878903,235.15625L721.6169612636329,250.04375L727.2017675817976,237.6375L732.7865738999624,237.6375L737.6267393757051,242.59999999999997L743.2115456938699,232.67499999999995L748.4240315908236,237.6375L753.8226776983829,240.11874999999998L759.0351635953366,235.15625L763.8753290710794,245.08124999999995L769.2739751786386,242.59999999999997L774.1141406543813,250.04375L780.815908236179,230.19374999999997L785.2837532907108,235.15625L791.427040240692,225.23125L796.8256863482512,217.78749999999997L802.5966528770215,155.75624999999997L808.1814591951862,155.75624999999997L813.021624670929,150.79375L818.9787514103047,153.27499999999998L824.3773975178639,153.27499999999998L829.4037232042122,237.6375L834.9885295223769,227.71249999999998L839.6425347875141,245.08124999999995L845.0411808950734,245.08124999999995L850.4398270026326,240.11874999999998L856.0246333207973,240.11874999999998L861.609439638962,227.71249999999998L867.0080857465213,227.71249999999998L872.220571643475,230.19374999999997L877.4330575404288,235.15625L882.831703647988,237.6375L888.6026701767582,232.67499999999995L893.8151560737119,232.67499999999995L899.7722828130876,222.75L904.6124482888304,232.67499999999995L910.3834148176006,230.19374999999997L915.7820609251598,227.71249999999998L921.180707032719,235.15625L926.2070327190673,232.67499999999995L931.9779992478375,232.67499999999995L937.5628055660022,230.19374999999997L942.775291462956,232.67499999999995L948.5462579917262,222.75L953.2002632568635,237.6375L958.4127491538172,242.59999999999997L963.4390748401655,178.08749999999998L968.4654005265137,178.08749999999998L974.0502068446784,180.56874999999997L978.8903723204212,178.08749999999998L983.9166980067695,180.56874999999997L989.5015043249342,240.11874999999998L994.341669800677,250.04375L999.9264761188417,240.11874999999998L1005.1389620157954,237.6375L1010.7237683339602,237.6375L1015.1916133884919,242.59999999999997L1020.4040992854457,247.5625L1025.802745393005,245.08124999999995L1030.6429108687475,255.00624999999997L1036.4138773975178,237.6375L1041.6263632944715,237.6375L1047.2111696126362,235.15625L1052.2374952989846,232.67499999999995L1057.8223016171492,235.15625L1062.8486273034976,237.6375L1068.0611132004515,245.08124999999995L1073.8320797292215,232.67499999999995L1078.85840541557,242.59999999999997L1084.2570515231291,235.15625L1089.4695374200828,235.15625L1094.868183527642,240.11874999999998L1100.0806694245957,237.6375L1105.106995110944,245.08124999999995L1110.3194810078976,242.59999999999997L1116.0904475366679,240.11874999999998L1121.116773223016,170.64374999999995L1126.32925911997,170.64374999999995L1131.5417450169236,168.16249999999997L1137.1265513350884,163.2L1142.5251974426476,168.16249999999997L1148.1100037608123,230.19374999999997L1153.1363294471607,232.67499999999995L1158.53497555472,235.15625L1163.7474614516736,237.6375L1169.3322677698384,237.6375L1174.7309138773976,232.67499999999995L1180.1295599849568,232.67499999999995L1185.155885671305,235.15625L1190.3683715682587,240.11874999999998L1195.2085370440016,247.5625L1200.6071831515608,247.5625L1205.8196690485145,245.08124999999995L1211.0321549454684,245.08124999999995L1215.5,250.04375L1215.5,520.5Z" stroke="none" stroke-width="0" fill-opacity="0" fill="#3366cc"></path></g><g><path d="M225.5,520.5L225.5,520.5L243.9298608499436,192.97500000000002L244.30218127115458,513.8833333333333L244.30218127115458,520.5L244.30218127115458,520.5L261.9874012786762,206.20833333333337L262.91820233170364,503.9583333333333L263.10436254230916,517.1916666666667L263.2905227529146,517.1916666666667L280.9757427604363,206.20833333333337L281.7203836028582,507.26666666666665L281.7203836028582,520.5L282.46502444528016,507.26666666666665L299.2194433997744,222.75L299.40560361037984,517.1916666666667L299.7779240315908,513.8833333333333L300.5225648740128,507.26666666666665L318.3939450921399,202.90000000000003L318.3939450921399,520.5L319.1385859345619,507.26666666666665L319.69706656637834,510.575L327.3296352012035,384.85833333333335L337.009966152689,348.4666666666667L337.009966152689,520.5L338.3130876269274,497.3416666666667L339.0577284693494,507.26666666666665L356.18446784505454,216.13333333333333L356.37062805566006,517.1916666666667L357.6737495298985,497.3416666666667L358.23223016171494,510.575L374.80048890560363,226.05833333333334L374.80048890560363,520.5L376.6620910116585,487.4166666666667L377.592892064686,503.9583333333333L393.6026701767582,235.98333333333335L393.6026701767582,520.5L395.6504324934186,484.10833333333335L396.95355396765706,497.3416666666667L412.40485144791273,245.90833333333336L412.40485144791273,520.5L414.8249341857842,477.4916666666667L416.31421587062806,494.03333333333336L431.0208725084618,259.1416666666667L431.0208725084618,520.5L432.88247461451675,487.4166666666667L434.37175629936064,494.03333333333336L449.4507333584054,252.52500000000003L449.4507333584054,520.5L450.3815344114329,503.9583333333333L452.4292967280933,484.10833333333335L467.69443399774354,249.2166666666667L467.69443399774354,520.5L468.625235050771,503.9583333333333L470.11451673561487,494.03333333333336L485.7519744264761,242.60000000000002L485.7519744264761,520.5L486.8689356901091,500.65L487.24125611132007,513.8833333333333L487.61357653253106,513.8833333333333L503.9956750658142,229.36666666666667L503.9956750658142,520.5L505.29879654005265,497.3416666666667L506.4157578036856,500.65L521.3085746521249,255.83333333333337L521.8670552839413,513.8833333333333L523.7286573899962,484.10833333333335L524.2871380218128,510.575L539.179954870252,255.83333333333337L539.3661150808575,517.1916666666667L541.7861978187289,477.4916666666667L544.0201203459947,480.8L557.6098157201956,278.9916666666667L558.168296352012,510.575L560.5883790898833,477.4916666666667L563.9392628807823,460.95L575.4811959383227,315.3833333333333L576.7843174125611,497.3416666666667L579.9490409928544,464.2583333333333L584.9753666792027,431.175L593.3525761564498,371.625L595.2141782625047,487.4166666666667L600.7989845806694,421.25L606.1976306882286,424.55833333333334L611.5962767957878,424.55833333333334L616.2502820609252,437.7916666666667L621.6489281684844,424.55833333333334L626.4890936442272,434.48333333333335L632.2600601729973,417.94166666666666L637.1002256487402,434.48333333333335L643.0573523881158,414.6333333333333L647.5251974426476,441.1L653.8546446032343,408.01666666666665L658.6948100789771,434.48333333333335L664.6519368183529,414.6333333333333L670.0505829259121,424.55833333333334L674.8907484016547,434.48333333333335L680.1032342986085,427.8666666666667L685.3157201955622,427.8666666666667L690.155885671305,434.48333333333335L695.3683715682587,427.8666666666667L701.3254983076345,414.6333333333333L705.9795035727717,437.7916666666667L711.5643098909364,421.25L716.7767957878903,427.8666666666667L721.6169612636329,434.48333333333335L727.2017675817976,421.25L732.7865738999624,421.25L737.6267393757051,434.48333333333335L743.2115456938699,421.25L748.4240315908236,427.8666666666667L753.8226776983829,424.55833333333334L759.0351635953366,427.8666666666667L763.8753290710794,434.48333333333335L769.2739751786386,424.55833333333334L774.1141406543813,434.48333333333335L780.815908236179,401.4L785.2837532907108,441.1L791.427040240692,411.325L796.8256863482512,424.55833333333334L802.5966528770215,417.94166666666666L808.1814591951862,421.25L813.021624670929,434.48333333333335L818.9787514103047,414.6333333333333L824.3773975178639,424.55833333333334L829.4037232042122,431.175L834.9885295223769,421.25L839.6425347875141,437.7916666666667L845.0411808950734,424.55833333333334L850.4398270026326,424.55833333333334L856.0246333207973,421.25L861.609439638962,421.25L867.0080857465213,424.55833333333334L872.220571643475,427.8666666666667L877.4330575404288,427.8666666666667L882.831703647988,424.55833333333334L888.6026701767582,417.94166666666666L893.8151560737119,427.8666666666667L899.7722828130876,414.6333333333333L904.6124482888304,434.48333333333335L910.3834148176006,417.94166666666666L915.7820609251598,424.55833333333334L921.180707032719,424.55833333333334L926.2070327190673,431.175L931.9779992478375,417.94166666666666L937.5628055660022,421.25L942.775291462956,427.8666666666667L948.5462579917262,417.94166666666666L953.2002632568635,437.7916666666667L958.4127491538172,427.8666666666667L963.4390748401655,431.175L968.4654005265137,431.175L974.0502068446784,421.25L978.8903723204212,434.48333333333335L983.9166980067695,431.175L989.5015043249342,421.25L994.341669800677,434.48333333333335L999.9264761188417,421.25L1005.1389620157954,427.8666666666667L1010.7237683339602,421.25L1015.1916133884919,441.1L1020.4040992854457,427.8666666666667L1025.802745393005,424.55833333333334L1030.6429108687475,434.48333333333335L1036.4138773975178,417.94166666666666L1041.6263632944715,427.8666666666667L1047.2111696126362,421.25L1052.2374952989846,431.175L1057.8223016171492,421.25L1062.8486273034976,431.175L1068.0611132004515,427.8666666666667L1073.8320797292215,417.94166666666666L1078.85840541557,431.175L1084.2570515231291,424.55833333333334L1089.4695374200828,427.8666666666667L1094.868183527642,424.55833333333334L1100.0806694245957,427.8666666666667L1105.106995110944,431.175L1110.3194810078976,427.8666666666667L1116.0904475366679,417.94166666666666L1121.116773223016,431.175L1126.32925911997,427.8666666666667L1131.5417450169236,427.8666666666667L1137.1265513350884,421.25L1142.5251974426476,424.55833333333334L1148.1100037608123,421.25L1153.1363294471607,431.175L1158.53497555472,424.55833333333334L1163.7474614516736,427.8666666666667L1169.3322677698384,421.25L1174.7309138773976,424.55833333333334L1180.1295599849568,424.55833333333334L1185.155885671305,431.175L1190.3683715682587,427.8666666666667L1195.2085370440016,434.48333333333335L1200.6071831515608,424.55833333333334L1205.8196690485145,427.8666666666667L1211.0321549454684,427.8666666666667L1215.5,441.1L1215.5,520.5Z" stroke="none" stroke-width="0" fill-opacity="0" fill="#dc3912"></path></g><g><path d="M225.5,520.5L225.5,520.5L243.9298608499436,520.5L244.30218127115458,520.5L244.30218127115458,520.5L244.30218127115458,520.5L261.9874012786762,520.5L262.91820233170364,520.5L263.10436254230916,520.5L263.2905227529146,520.5L280.9757427604363,520.5L281.7203836028582,520.5L281.7203836028582,520.5L282.46502444528016,520.5L299.2194433997744,520.5L299.40560361037984,520.5L299.7779240315908,520.5L300.5225648740128,520.5L318.3939450921399,520.5L318.3939450921399,520.5L319.1385859345619,520.5L319.69706656637834,520.5L327.3296352012035,520.5L337.009966152689,520.5L337.009966152689,520.5L338.3130876269274,520.5L339.0577284693494,520.5L356.18446784505454,520.5L356.37062805566006,520.5L357.6737495298985,520.5L358.23223016171494,520.5L374.80048890560363,520.5L374.80048890560363,520.5L376.6620910116585,520.5L377.592892064686,520.5L393.6026701767582,520.5L393.6026701767582,520.5L395.6504324934186,520.5L396.95355396765706,520.5L412.40485144791273,520.5L412.40485144791273,520.5L414.8249341857842,520.5L416.31421587062806,520.5L431.0208725084618,520.5L431.0208725084618,520.5L432.88247461451675,520.5L434.37175629936064,520.5L449.4507333584054,520.5L449.4507333584054,520.5L450.3815344114329,520.5L452.4292967280933,520.5L467.69443399774354,520.5L467.69443399774354,520.5L468.625235050771,520.5L470.11451673561487,520.5L485.7519744264761,520.5L485.7519744264761,520.5L486.8689356901091,520.5L487.24125611132007,520.5L487.61357653253106,520.5L503.9956750658142,520.5L503.9956750658142,520.5L505.29879654005265,520.5L506.4157578036856,520.5L521.3085746521249,520.5L521.8670552839413,520.5L523.7286573899962,520.5L524.2871380218128,520.5L539.179954870252,520.5L539.3661150808575,520.5L541.7861978187289,520.5L544.0201203459947,520.5L557.6098157201956,520.5L558.168296352012,520.5L560.5883790898833,520.5L563.9392628807823,520.5L575.4811959383227,520.5L576.7843174125611,520.5L579.9490409928544,520.5L584.9753666792027,520.5L593.3525761564498,520.5L595.2141782625047,520.5L600.7989845806694,520.5L606.1976306882286,520.5L611.5962767957878,520.5L616.2502820609252,520.5L621.6489281684844,520.5L626.4890936442272,520.5L632.2600601729973,520.5L637.1002256487402,520.5L643.0573523881158,192.97500000000002L647.5251974426476,192.97500000000002L653.8546446032343,192.97500000000002L658.6948100789771,192.97500000000002L664.6519368183529,192.97500000000002L670.0505829259121,192.97500000000002L674.8907484016547,192.97500000000002L680.1032342986085,192.97500000000002L685.3157201955622,192.97500000000002L690.155885671305,192.97500000000002L695.3683715682587,192.97500000000002L701.3254983076345,192.97500000000002L705.9795035727717,192.97500000000002L711.5643098909364,192.97500000000002L716.7767957878903,192.97500000000002L721.6169612636329,192.97500000000002L727.2017675817976,192.97500000000002L732.7865738999624,192.97500000000002L737.6267393757051,192.97500000000002L743.2115456938699,192.97500000000002L748.4240315908236,192.97500000000002L753.8226776983829,192.97500000000002L759.0351635953366,192.97500000000002L763.8753290710794,192.97500000000002L769.2739751786386,192.97500000000002L774.1141406543813,192.97500000000002L780.815908236179,192.97500000000002L785.2837532907108,192.97500000000002L791.427040240692,192.97500000000002L796.8256863482512,192.97500000000002L802.5966528770215,192.97500000000002L808.1814591951862,192.97500000000002L813.021624670929,192.97500000000002L818.9787514103047,192.97500000000002L824.3773975178639,192.97500000000002L829.4037232042122,192.97500000000002L834.9885295223769,192.97500000000002L839.6425347875141,192.97500000000002L845.0411808950734,192.97500000000002L850.4398270026326,192.97500000000002L856.0246333207973,192.97500000000002L861.609439638962,192.97500000000002L867.0080857465213,192.97500000000002L872.220571643475,192.97500000000002L877.4330575404288,192.97500000000002L882.831703647988,192.97500000000002L888.6026701767582,192.97500000000002L893.8151560737119,192.97500000000002L899.7722828130876,192.97500000000002L904.6124482888304,192.97500000000002L910.3834148176006,192.97500000000002L915.7820609251598,192.97500000000002L921.180707032719,192.97500000000002L926.2070327190673,192.97500000000002L931.9779992478375,192.97500000000002L937.5628055660022,192.97500000000002L942.775291462956,192.97500000000002L948.5462579917262,192.97500000000002L953.2002632568635,192.97500000000002L958.4127491538172,192.97500000000002L963.4390748401655,192.97500000000002L968.4654005265137,192.97500000000002L974.0502068446784,192.97500000000002L978.8903723204212,192.97500000000002L983.9166980067695,192.97500000000002L989.5015043249342,192.97500000000002L994.341669800677,192.97500000000002L999.9264761188417,192.97500000000002L1005.1389620157954,192.97500000000002L1010.7237683339602,192.97500000000002L1015.1916133884919,192.97500000000002L1020.4040992854457,192.97500000000002L1025.802745393005,192.97500000000002L1030.6429108687475,192.97500000000002L1036.4138773975178,192.97500000000002L1041.6263632944715,192.97500000000002L1047.2111696126362,192.97500000000002L1052.2374952989846,192.97500000000002L1057.8223016171492,192.97500000000002L1062.8486273034976,192.97500000000002L1068.0611132004515,192.97500000000002L1073.8320797292215,192.97500000000002L1078.85840541557,192.97500000000002L1084.2570515231291,192.97500000000002L1089.4695374200828,192.97500000000002L1094.868183527642,192.97500000000002L1100.0806694245957,192.97500000000002L1105.106995110944,192.97500000000002L1110.3194810078976,192.97500000000002L1116.0904475366679,192.97500000000002L1121.116773223016,192.97500000000002L1126.32925911997,192.97500000000002L1131.5417450169236,192.97500000000002L1137.1265513350884,192.97500000000002L1142.5251974426476,192.97500000000002L1148.1100037608123,192.97500000000002L1153.1363294471607,192.97500000000002L1158.53497555472,192.97500000000002L1163.7474614516736,192.97500000000002L1169.3322677698384,192.97500000000002L1174.7309138773976,192.97500000000002L1180.1295599849568,192.97500000000002L1185.155885671305,192.97500000000002L1190.3683715682587,192.97500000000002L1195.2085370440016,192.97500000000002L1200.6071831515608,192.97500000000002L1205.8196690485145,192.97500000000002L1211.0321549454684,192.97500000000002L1215.5,192.97500000000002L1215.5,520.5Z" stroke="none" stroke-width="0" fill-opacity="0.3" fill="#93c47d"></path></g></g><g><rect x="225" y="123" width="1" height="398" stroke="none" stroke-width="0" fill="#333333"></rect><rect x="225" y="520" width="991" height="1" stroke="none" stroke-width="0" fill="#333333"></rect><rect x="225" y="520" width="991" height="1" stroke="none" stroke-width="0" fill="#333333"></rect></g><g><path d="M225.5,277.3375L243.9298608499436,277.3375L244.30218127115458,269.89374999999995L244.30218127115458,272.375L244.30218127115458,272.375L261.9874012786762,279.81875L262.91820233170364,272.375L263.10436254230916,272.375L263.2905227529146,269.89374999999995L280.9757427604363,267.4125L281.7203836028582,272.375L281.7203836028582,272.375L282.46502444528016,264.93125L299.2194433997744,277.3375L299.40560361037984,284.78125L299.7779240315908,279.81875L300.5225648740128,279.81875L318.3939450921399,267.4125L318.3939450921399,264.93125L319.1385859345619,262.45L319.69706656637834,264.93125L327.3296352012035,272.375L337.009966152689,272.375L337.009966152689,272.375L338.3130876269274,264.93125L339.0577284693494,262.45L356.18446784505454,264.93125L356.37062805566006,262.45L357.6737495298985,262.45L358.23223016171494,264.93125L374.80048890560363,274.85625L374.80048890560363,274.85625L376.6620910116585,267.4125L377.592892064686,262.45L393.6026701767582,269.89374999999995L393.6026701767582,269.89374999999995L395.6504324934186,267.4125L396.95355396765706,262.45L412.40485144791273,269.89374999999995L412.40485144791273,269.89374999999995L414.8249341857842,264.93125L416.31421587062806,262.45L431.0208725084618,274.85625L431.0208725084618,272.375L432.88247461451675,279.81875L434.37175629936064,279.81875L449.4507333584054,274.85625L449.4507333584054,274.85625L450.3815344114329,287.2625L452.4292967280933,279.81875L467.69443399774354,277.3375L467.69443399774354,277.3375L468.625235050771,277.3375L470.11451673561487,284.78125L485.7519744264761,279.81875L485.7519744264761,279.81875L486.8689356901091,277.3375L487.24125611132007,287.2625L487.61357653253106,287.2625L503.9956750658142,277.3375L503.9956750658142,277.3375L505.29879654005265,274.85625L506.4157578036856,272.375L521.3085746521249,289.74375L521.8670552839413,284.78125L523.7286573899962,274.85625L524.2871380218128,284.78125L539.179954870252,289.74375L539.3661150808575,279.81875L541.7861978187289,279.81875L544.0201203459947,257.48749999999995L557.6098157201956,277.3375L558.168296352012,269.89374999999995L560.5883790898833,269.89374999999995L563.9392628807823,257.48749999999995L575.4811959383227,282.29999999999995L576.7843174125611,272.375L579.9490409928544,262.45L584.9753666792027,242.59999999999997L593.3525761564498,282.29999999999995L595.2141782625047,274.85625L600.7989845806694,242.59999999999997L606.1976306882286,240.11874999999998L611.5962767957878,277.3375L616.2502820609252,240.11874999999998L621.6489281684844,242.59999999999997L626.4890936442272,250.04375L632.2600601729973,245.08124999999995L637.1002256487402,242.59999999999997L643.0573523881158,175.60625L647.5251974426476,175.60625L653.8546446032343,155.75624999999997L658.6948100789771,168.16249999999997L664.6519368183529,153.27499999999998L670.0505829259121,222.75L674.8907484016547,242.59999999999997L680.1032342986085,235.15625L685.3157201955622,245.08124999999995L690.155885671305,252.52499999999998L695.3683715682587,247.5625L701.3254983076345,237.6375L705.9795035727717,245.08124999999995L711.5643098909364,235.15625L716.7767957878903,235.15625L721.6169612636329,250.04375L727.2017675817976,237.6375L732.7865738999624,237.6375L737.6267393757051,242.59999999999997L743.2115456938699,232.67499999999995L748.4240315908236,237.6375L753.8226776983829,240.11874999999998L759.0351635953366,235.15625L763.8753290710794,245.08124999999995L769.2739751786386,242.59999999999997L774.1141406543813,250.04375L780.815908236179,230.19374999999997L785.2837532907108,235.15625L791.427040240692,225.23125L796.8256863482512,217.78749999999997L802.5966528770215,155.75624999999997L808.1814591951862,155.75624999999997L813.021624670929,150.79375L818.9787514103047,153.27499999999998L824.3773975178639,153.27499999999998L829.4037232042122,237.6375L834.9885295223769,227.71249999999998L839.6425347875141,245.08124999999995L845.0411808950734,245.08124999999995L850.4398270026326,240.11874999999998L856.0246333207973,240.11874999999998L861.609439638962,227.71249999999998L867.0080857465213,227.71249999999998L872.220571643475,230.19374999999997L877.4330575404288,235.15625L882.831703647988,237.6375L888.6026701767582,232.67499999999995L893.8151560737119,232.67499999999995L899.7722828130876,222.75L904.6124482888304,232.67499999999995L910.3834148176006,230.19374999999997L915.7820609251598,227.71249999999998L921.180707032719,235.15625L926.2070327190673,232.67499999999995L931.9779992478375,232.67499999999995L937.5628055660022,230.19374999999997L942.775291462956,232.67499999999995L948.5462579917262,222.75L953.2002632568635,237.6375L958.4127491538172,242.59999999999997L963.4390748401655,178.08749999999998L968.4654005265137,178.08749999999998L974.0502068446784,180.56874999999997L978.8903723204212,178.08749999999998L983.9166980067695,180.56874999999997L989.5015043249342,240.11874999999998L994.341669800677,250.04375L999.9264761188417,240.11874999999998L1005.1389620157954,237.6375L1010.7237683339602,237.6375L1015.1916133884919,242.59999999999997L1020.4040992854457,247.5625L1025.802745393005,245.08124999999995L1030.6429108687475,255.00624999999997L1036.4138773975178,237.6375L1041.6263632944715,237.6375L1047.2111696126362,235.15625L1052.2374952989846,232.67499999999995L1057.8223016171492,235.15625L1062.8486273034976,237.6375L1068.0611132004515,245.08124999999995L1073.8320797292215,232.67499999999995L1078.85840541557,242.59999999999997L1084.2570515231291,235.15625L1089.4695374200828,235.15625L1094.868183527642,240.11874999999998L1100.0806694245957,237.6375L1105.106995110944,245.08124999999995L1110.3194810078976,242.59999999999997L1116.0904475366679,240.11874999999998L1121.116773223016,170.64374999999995L1126.32925911997,170.64374999999995L1131.5417450169236,168.16249999999997L1137.1265513350884,163.2L1142.5251974426476,168.16249999999997L1148.1100037608123,230.19374999999997L1153.1363294471607,232.67499999999995L1158.53497555472,235.15625L1163.7474614516736,237.6375L1169.3322677698384,237.6375L1174.7309138773976,232.67499999999995L1180.1295599849568,232.67499999999995L1185.155885671305,235.15625L1190.3683715682587,240.11874999999998L1195.2085370440016,247.5625L1200.6071831515608,247.5625L1205.8196690485145,245.08124999999995L1211.0321549454684,245.08124999999995L1215.5,250.04375" stroke="#3366cc" stroke-width="1" fill-opacity="1" fill="none"></path><path d="M225.5,520.5L243.9298608499436,192.97500000000002L244.30218127115458,513.8833333333333L244.30218127115458,520.5L244.30218127115458,520.5L261.9874012786762,206.20833333333337L262.91820233170364,503.9583333333333L263.10436254230916,517.1916666666667L263.2905227529146,517.1916666666667L280.9757427604363,206.20833333333337L281.7203836028582,507.26666666666665L281.7203836028582,520.5L282.46502444528016,507.26666666666665L299.2194433997744,222.75L299.40560361037984,517.1916666666667L299.7779240315908,513.8833333333333L300.5225648740128,507.26666666666665L318.3939450921399,202.90000000000003L318.3939450921399,520.5L319.1385859345619,507.26666666666665L319.69706656637834,510.575L327.3296352012035,384.85833333333335L337.009966152689,348.4666666666667L337.009966152689,520.5L338.3130876269274,497.3416666666667L339.0577284693494,507.26666666666665L356.18446784505454,216.13333333333333L356.37062805566006,517.1916666666667L357.6737495298985,497.3416666666667L358.23223016171494,510.575L374.80048890560363,226.05833333333334L374.80048890560363,520.5L376.6620910116585,487.4166666666667L377.592892064686,503.9583333333333L393.6026701767582,235.98333333333335L393.6026701767582,520.5L395.6504324934186,484.10833333333335L396.95355396765706,497.3416666666667L412.40485144791273,245.90833333333336L412.40485144791273,520.5L414.8249341857842,477.4916666666667L416.31421587062806,494.03333333333336L431.0208725084618,259.1416666666667L431.0208725084618,520.5L432.88247461451675,487.4166666666667L434.37175629936064,494.03333333333336L449.4507333584054,252.52500000000003L449.4507333584054,520.5L450.3815344114329,503.9583333333333L452.4292967280933,484.10833333333335L467.69443399774354,249.2166666666667L467.69443399774354,520.5L468.625235050771,503.9583333333333L470.11451673561487,494.03333333333336L485.7519744264761,242.60000000000002L485.7519744264761,520.5L486.8689356901091,500.65L487.24125611132007,513.8833333333333L487.61357653253106,513.8833333333333L503.9956750658142,229.36666666666667L503.9956750658142,520.5L505.29879654005265,497.3416666666667L506.4157578036856,500.65L521.3085746521249,255.83333333333337L521.8670552839413,513.8833333333333L523.7286573899962,484.10833333333335L524.2871380218128,510.575L539.179954870252,255.83333333333337L539.3661150808575,517.1916666666667L541.7861978187289,477.4916666666667L544.0201203459947,480.8L557.6098157201956,278.9916666666667L558.168296352012,510.575L560.5883790898833,477.4916666666667L563.9392628807823,460.95L575.4811959383227,315.3833333333333L576.7843174125611,497.3416666666667L579.9490409928544,464.2583333333333L584.9753666792027,431.175L593.3525761564498,371.625L595.2141782625047,487.4166666666667L600.7989845806694,421.25L606.1976306882286,424.55833333333334L611.5962767957878,424.55833333333334L616.2502820609252,437.7916666666667L621.6489281684844,424.55833333333334L626.4890936442272,434.48333333333335L632.2600601729973,417.94166666666666L637.1002256487402,434.48333333333335L643.0573523881158,414.6333333333333L647.5251974426476,441.1L653.8546446032343,408.01666666666665L658.6948100789771,434.48333333333335L664.6519368183529,414.6333333333333L670.0505829259121,424.55833333333334L674.8907484016547,434.48333333333335L680.1032342986085,427.8666666666667L685.3157201955622,427.8666666666667L690.155885671305,434.48333333333335L695.3683715682587,427.8666666666667L701.3254983076345,414.6333333333333L705.9795035727717,437.7916666666667L711.5643098909364,421.25L716.7767957878903,427.8666666666667L721.6169612636329,434.48333333333335L727.2017675817976,421.25L732.7865738999624,421.25L737.6267393757051,434.48333333333335L743.2115456938699,421.25L748.4240315908236,427.8666666666667L753.8226776983829,424.55833333333334L759.0351635953366,427.8666666666667L763.8753290710794,434.48333333333335L769.2739751786386,424.55833333333334L774.1141406543813,434.48333333333335L780.815908236179,401.4L785.2837532907108,441.1L791.427040240692,411.325L796.8256863482512,424.55833333333334L802.5966528770215,417.94166666666666L808.1814591951862,421.25L813.021624670929,434.48333333333335L818.9787514103047,414.6333333333333L824.3773975178639,424.55833333333334L829.4037232042122,431.175L834.9885295223769,421.25L839.6425347875141,437.7916666666667L845.0411808950734,424.55833333333334L850.4398270026326,424.55833333333334L856.0246333207973,421.25L861.609439638962,421.25L867.0080857465213,424.55833333333334L872.220571643475,427.8666666666667L877.4330575404288,427.8666666666667L882.831703647988,424.55833333333334L888.6026701767582,417.94166666666666L893.8151560737119,427.8666666666667L899.7722828130876,414.6333333333333L904.6124482888304,434.48333333333335L910.3834148176006,417.94166666666666L915.7820609251598,424.55833333333334L921.180707032719,424.55833333333334L926.2070327190673,431.175L931.9779992478375,417.94166666666666L937.5628055660022,421.25L942.775291462956,427.8666666666667L948.5462579917262,417.94166666666666L953.2002632568635,437.7916666666667L958.4127491538172,427.8666666666667L963.4390748401655,431.175L968.4654005265137,431.175L974.0502068446784,421.25L978.8903723204212,434.48333333333335L983.9166980067695,431.175L989.5015043249342,421.25L994.341669800677,434.48333333333335L999.9264761188417,421.25L1005.1389620157954,427.8666666666667L1010.7237683339602,421.25L1015.1916133884919,441.1L1020.4040992854457,427.8666666666667L1025.802745393005,424.55833333333334L1030.6429108687475,434.48333333333335L1036.4138773975178,417.94166666666666L1041.6263632944715,427.8666666666667L1047.2111696126362,421.25L1052.2374952989846,431.175L1057.8223016171492,421.25L1062.8486273034976,431.175L1068.0611132004515,427.8666666666667L1073.8320797292215,417.94166666666666L1078.85840541557,431.175L1084.2570515231291,424.55833333333334L1089.4695374200828,427.8666666666667L1094.868183527642,424.55833333333334L1100.0806694245957,427.8666666666667L1105.106995110944,431.175L1110.3194810078976,427.8666666666667L1116.0904475366679,417.94166666666666L1121.116773223016,431.175L1126.32925911997,427.8666666666667L1131.5417450169236,427.8666666666667L1137.1265513350884,421.25L1142.5251974426476,424.55833333333334L1148.1100037608123,421.25L1153.1363294471607,431.175L1158.53497555472,424.55833333333334L1163.7474614516736,427.8666666666667L1169.3322677698384,421.25L1174.7309138773976,424.55833333333334L1180.1295599849568,424.55833333333334L1185.155885671305,431.175L1190.3683715682587,427.8666666666667L1195.2085370440016,434.48333333333335L1200.6071831515608,424.55833333333334L1205.8196690485145,427.8666666666667L1211.0321549454684,427.8666666666667L1215.5,441.1" stroke="#dc3912" stroke-width="1" fill-opacity="1" fill="none"></path><path d="M225.5,520.5L243.9298608499436,520.5L244.30218127115458,520.5L244.30218127115458,520.5L244.30218127115458,520.5L261.9874012786762,520.5L262.91820233170364,520.5L263.10436254230916,520.5L263.2905227529146,520.5L280.9757427604363,520.5L281.7203836028582,520.5L281.7203836028582,520.5L282.46502444528016,520.5L299.2194433997744,520.5L299.40560361037984,520.5L299.7779240315908,520.5L300.5225648740128,520.5L318.3939450921399,520.5L318.3939450921399,520.5L319.1385859345619,520.5L319.69706656637834,520.5L327.3296352012035,520.5L337.009966152689,520.5L337.009966152689,520.5L338.3130876269274,520.5L339.0577284693494,520.5L356.18446784505454,520.5L356.37062805566006,520.5L357.6737495298985,520.5L358.23223016171494,520.5L374.80048890560363,520.5L374.80048890560363,520.5L376.6620910116585,520.5L377.592892064686,520.5L393.6026701767582,520.5L393.6026701767582,520.5L395.6504324934186,520.5L396.95355396765706,520.5L412.40485144791273,520.5L412.40485144791273,520.5L414.8249341857842,520.5L416.31421587062806,520.5L431.0208725084618,520.5L431.0208725084618,520.5L432.88247461451675,520.5L434.37175629936064,520.5L449.4507333584054,520.5L449.4507333584054,520.5L450.3815344114329,520.5L452.4292967280933,520.5L467.69443399774354,520.5L467.69443399774354,520.5L468.625235050771,520.5L470.11451673561487,520.5L485.7519744264761,520.5L485.7519744264761,520.5L486.8689356901091,520.5L487.24125611132007,520.5L487.61357653253106,520.5L503.9956750658142,520.5L503.9956750658142,520.5L505.29879654005265,520.5L506.4157578036856,520.5L521.3085746521249,520.5L521.8670552839413,520.5L523.7286573899962,520.5L524.2871380218128,520.5L539.179954870252,520.5L539.3661150808575,520.5L541.7861978187289,520.5L544.0201203459947,520.5L557.6098157201956,520.5L558.168296352012,520.5L560.5883790898833,520.5L563.9392628807823,520.5L575.4811959383227,520.5L576.7843174125611,520.5L579.9490409928544,520.5L584.9753666792027,520.5L593.3525761564498,520.5L595.2141782625047,520.5L600.7989845806694,520.5L606.1976306882286,520.5L611.5962767957878,520.5L616.2502820609252,520.5L621.6489281684844,520.5L626.4890936442272,520.5L632.2600601729973,520.5L637.1002256487402,520.5L643.0573523881158,192.97500000000002L647.5251974426476,192.97500000000002L653.8546446032343,192.97500000000002L658.6948100789771,192.97500000000002L664.6519368183529,192.97500000000002L670.0505829259121,192.97500000000002L674.8907484016547,192.97500000000002L680.1032342986085,192.97500000000002L685.3157201955622,192.97500000000002L690.155885671305,192.97500000000002L695.3683715682587,192.97500000000002L701.3254983076345,192.97500000000002L705.9795035727717,192.97500000000002L711.5643098909364,192.97500000000002L716.7767957878903,192.97500000000002L721.6169612636329,192.97500000000002L727.2017675817976,192.97500000000002L732.7865738999624,192.97500000000002L737.6267393757051,192.97500000000002L743.2115456938699,192.97500000000002L748.4240315908236,192.97500000000002L753.8226776983829,192.97500000000002L759.0351635953366,192.97500000000002L763.8753290710794,192.97500000000002L769.2739751786386,192.97500000000002L774.1141406543813,192.97500000000002L780.815908236179,192.97500000000002L785.2837532907108,192.97500000000002L791.427040240692,192.97500000000002L796.8256863482512,192.97500000000002L802.5966528770215,192.97500000000002L808.1814591951862,192.97500000000002L813.021624670929,192.97500000000002L818.9787514103047,192.97500000000002L824.3773975178639,192.97500000000002L829.4037232042122,192.97500000000002L834.9885295223769,192.97500000000002L839.6425347875141,192.97500000000002L845.0411808950734,192.97500000000002L850.4398270026326,192.97500000000002L856.0246333207973,192.97500000000002L861.609439638962,192.97500000000002L867.0080857465213,192.97500000000002L872.220571643475,192.97500000000002L877.4330575404288,192.97500000000002L882.831703647988,192.97500000000002L888.6026701767582,192.97500000000002L893.8151560737119,192.97500000000002L899.7722828130876,192.97500000000002L904.6124482888304,192.97500000000002L910.3834148176006,192.97500000000002L915.7820609251598,192.97500000000002L921.180707032719,192.97500000000002L926.2070327190673,192.97500000000002L931.9779992478375,192.97500000000002L937.5628055660022,192.97500000000002L942.775291462956,192.97500000000002L948.5462579917262,192.97500000000002L953.2002632568635,192.97500000000002L958.4127491538172,192.97500000000002L963.4390748401655,192.97500000000002L968.4654005265137,192.97500000000002L974.0502068446784,192.97500000000002L978.8903723204212,192.97500000000002L983.9166980067695,192.97500000000002L989.5015043249342,192.97500000000002L994.341669800677,192.97500000000002L999.9264761188417,192.97500000000002L1005.1389620157954,192.97500000000002L1010.7237683339602,192.97500000000002L1015.1916133884919,192.97500000000002L1020.4040992854457,192.97500000000002L1025.802745393005,192.97500000000002L1030.6429108687475,192.97500000000002L1036.4138773975178,192.97500000000002L1041.6263632944715,192.97500000000002L1047.2111696126362,192.97500000000002L1052.2374952989846,192.97500000000002L1057.8223016171492,192.97500000000002L1062.8486273034976,192.97500000000002L1068.0611132004515,192.97500000000002L1073.8320797292215,192.97500000000002L1078.85840541557,192.97500000000002L1084.2570515231291,192.97500000000002L1089.4695374200828,192.97500000000002L1094.868183527642,192.97500000000002L1100.0806694245957,192.97500000000002L1105.106995110944,192.97500000000002L1110.3194810078976,192.97500000000002L1116.0904475366679,192.97500000000002L1121.116773223016,192.97500000000002L1126.32925911997,192.97500000000002L1131.5417450169236,192.97500000000002L1137.1265513350884,192.97500000000002L1142.5251974426476,192.97500000000002L1148.1100037608123,192.97500000000002L1153.1363294471607,192.97500000000002L1158.53497555472,192.97500000000002L1163.7474614516736,192.97500000000002L1169.3322677698384,192.97500000000002L1174.7309138773976,192.97500000000002L1180.1295599849568,192.97500000000002L1185.155885671305,192.97500000000002L1190.3683715682587,192.97500000000002L1195.2085370440016,192.97500000000002L1200.6071831515608,192.97500000000002L1205.8196690485145,192.97500000000002L1211.0321549454684,192.97500000000002L1215.5,192.97500000000002" stroke="#93c47d" stroke-width="2" fill-opacity="1" fill="none"></path></g></g><g></g><g><g><text text-anchor="middle" x="353.3920646859722" y="544.6" font-family="Arial" font-size="16" stroke="none" stroke-width="0" fill="#444444">1000</text></g><g><text text-anchor="middle" x="539.5522752914629" y="544.6" font-family="Arial" font-size="16" stroke="none" stroke-width="0" fill="#444444">2000</text></g><g><text text-anchor="middle" x="725.7124858969537" y="544.6" font-family="Arial" font-size="16" stroke="none" stroke-width="0" fill="#444444">3000</text></g><g><text text-anchor="middle" x="911.8726965024446" y="544.6" font-family="Arial" font-size="16" stroke="none" stroke-width="0" fill="#444444">4000</text></g><g><text text-anchor="middle" x="1098.0329071079354" y="544.6" font-family="Arial" font-size="16" stroke="none" stroke-width="0" fill="#444444">5000</text></g><g><text text-anchor="end" x="209" y="526.1" font-family="Arial" font-size="16" stroke="none" stroke-width="0" fill="#444444">0</text></g><g><text text-anchor="end" x="209" y="426.85" font-family="Arial" font-size="16" stroke="none" stroke-width="0" fill="#444444">30</text></g><g><text text-anchor="end" x="209" y="327.6" font-family="Arial" font-size="16" stroke="none" stroke-width="0" fill="#444444">60</text></g><g><text text-anchor="end" x="209" y="228.35" font-family="Arial" font-size="16" stroke="none" stroke-width="0" fill="#444444">90</text></g><g><text text-anchor="end" x="209" y="129.1" font-family="Arial" font-size="16" stroke="none" stroke-width="0" fill="#444444">120</text></g><g><text text-anchor="start" x="1232" y="526.1" font-family="Arial" font-size="16" stroke="none" stroke-width="0" fill="#444444">0</text></g><g><text text-anchor="start" x="1232" y="426.85" font-family="Arial" font-size="16" stroke="none" stroke-width="0" fill="#444444">40</text></g><g><text text-anchor="start" x="1232" y="327.6" font-family="Arial" font-size="16" stroke="none" stroke-width="0" fill="#444444">80</text></g><g><text text-anchor="start" x="1232" y="228.35" font-family="Arial" font-size="16" stroke="none" stroke-width="0" fill="#444444">120</text></g><g><text text-anchor="start" x="1232" y="129.1" font-family="Arial" font-size="16" stroke="none" stroke-width="0" fill="#444444">160</text></g></g><g><rect x="225" y="133" width="221" height="16" stroke="none" stroke-width="0" fill-opacity="0" fill="#ffffff"></rect><g><rect x="225" y="133" width="53" height="16" stroke="none" stroke-width="0" fill-opacity="0" fill="#ffffff"></rect><g><g><text text-anchor="start" x="247" y="146.6" font-family="Arial" font-size="16" stroke="#ffffff" stroke-width="3" fill="#222222" aria-hidden="true">RTT</text><text text-anchor="start" x="247" y="146.6" font-family="Arial" font-size="16" stroke="none" stroke-width="0" fill="#222222">RTT</text></g></g><rect x="225" y="133" width="16" height="16" stroke="#ffffff" stroke-width="1" fill="#3366cc"></rect></g><g><rect x="304" y="133" width="53" height="16" stroke="none" stroke-width="0" fill-opacity="0" fill="#ffffff"></rect><g><g><text text-anchor="start" x="326" y="146.6" font-family="Arial" font-size="16" stroke="#ffffff" stroke-width="3" fill="#222222" aria-hidden="true">Darr</text><text text-anchor="start" x="326" y="146.6" font-family="Arial" font-size="16" stroke="none" stroke-width="0" fill="#222222">Darr</text></g></g><rect x="304" y="133" width="16" height="16" stroke="#ffffff" stroke-width="1" fill="#dc3912"></rect></g><g><rect x="383" y="133" width="63" height="16" stroke="none" stroke-width="0" fill-opacity="0" fill="#ffffff"></rect><g><g><text text-anchor="start" x="405" y="146.6" font-family="Arial" font-size="16" stroke="#ffffff" stroke-width="3" fill="#222222" aria-hidden="true">Fresh</text><text text-anchor="start" x="405" y="146.6" font-family="Arial" font-size="16" stroke="none" stroke-width="0" fill="#222222">Fresh</text></g></g><rect x="383" y="133" width="16" height="16" stroke="#ffffff" stroke-width="1" fill="#93c47d"></rect></g></g></g><g><g><text text-anchor="middle" x="720.5" y="601.1" font-family="Arial" font-size="16" font-style="italic" stroke="none" stroke-width="0" fill="#222222">Time</text></g><g><text text-anchor="middle" x="96.6" y="322" font-family="Arial" font-size="16" font-style="italic" transform="rotate(-90 96.6 322)" stroke="none" stroke-width="0" fill="#222222">Darr (ms)</text></g><g><text text-anchor="middle" x="1355.1" y="322" font-family="Arial" font-size="16" font-style="italic" transform="rotate(-90 1355.1 322)" stroke="none" stroke-width="0" fill="#222222">RTT (ms)</text></g></g><g></g></svg>