<svg width="1440" height="644" aria-label="A chart." style="overflow: hidden;"><defs id="defs"><clipPath id="_ABSTRACT_RENDERER_ID_6"><rect x="225" y="123" width="991" height="398"></rect></clipPath></defs><rect x="0" y="0" width="1440" height="644" stroke="none" stroke-width="0" fill="#ffffff"></rect><g><rect x="225" y="123" width="991" height="398" stroke="none" stroke-width="0" fill-opacity="0" fill="#ffffff"></rect><g clip-path="url(#_ABSTRACT_RENDERER_ID_6)"><g><rect x="358" y="123" width="1" height="398" stroke="none" stroke-width="0" fill="#cccccc"></rect><rect x="541" y="123" width="1" height="398" stroke="none" stroke-width="0" fill="#cccccc"></rect><rect x="724" y="123" width="1" height="398" stroke="none" stroke-width="0" fill="#cccccc"></rect><rect x="907" y="123" width="1" height="398" stroke="none" stroke-width="0" fill="#cccccc"></rect><rect x="1091" y="123" width="1" height="398" stroke="none" stroke-width="0" fill="#cccccc"></rect><rect x="225" y="520" width="991" height="1" stroke="none" stroke-width="0" fill="#cccccc"></rect><rect x="225" y="421" width="991" height="1" stroke="none" stroke-width="0" fill="#cccccc"></rect><rect x="225" y="322" width="991" height="1" stroke="none" stroke-width="0" fill="#cccccc"></rect><rect x="225" y="222" width="991" height="1" stroke="none" stroke-width="0" fill="#cccccc"></rect><rect x="225" y="123" width="991" height="1" stroke="none" stroke-width="0" fill="#cccccc"></rect></g><g><g><path d="M225.5,520.5L225.5,520.5L244.00296076980015,186.35833333333335L244.00296076980015,520.5L244.18615840118431,517.1916666666667L244.18615840118431,520.5L244.18615840118431,520.5L262.3227239082161,192.97500000000002L262.3227239082161,520.5L262.3227239082161,520.5L262.3227239082161,520.5L262.3227239082161,520.5L279.9096965210955,202.90000000000003L279.9096965210955,520.5L279.9096965210955,520.5L279.9096965210955,520.5L279.9096965210955,520.5L297.86306439674314,196.28333333333336L297.86306439674314,520.5L297.86306439674314,520.5L297.86306439674314,520.5L297.86306439674314,520.5L316.3660251665433,186.35833333333335L316.3660251665433,520.5L316.3660251665433,520.5L316.3660251665433,520.5L316.3660251665433,520.5L333.58660251665435,209.5166666666667L335.6017764618801,484.10833333333335L335.7849740932642,517.1916666666667L335.7849740932642,520.5L339.63212435233163,451.025L345.31125092524053,417.94166666666666L353.73834196891187,368.31666666666666L355.9367135455218,480.8L361.4326424870466,421.25L366.74537379718726,424.55833333333334L372.2413027387121,421.25L377.73723168023685,421.25L383.2331606217616,421.25L388.54589193190225,424.55833333333334L393.8586232420429,424.55833333333334L399.5377498149519,417.94166666666666L404.85048112509253,424.55833333333334L410.5296076980014,417.94166666666666L415.4759437453738,431.175L421.7046632124352,408.01666666666665L426.6509992598076,431.175L431.9637305699482,424.55833333333334L436.5436713545522,437.7916666666667L442.5891931902295,411.325L447.53552923760174,431.175L452.84826054774237,424.55833333333334L457.24500370096223,441.1L463.2905255366395,411.325L468.60325684678014,424.55833333333334L473.9159881569208,424.55833333333334L478.8623242042931,431.175L484.1750555144337,424.55833333333334L489.12139156180604,431.175L494.06772760917835,431.175L499.380458919319,424.55833333333334L504.5099925980755,431.175L510.00592153960025,417.94166666666666L514.7690599555884,434.48333333333335L520.2649888971132,421.25L524.6617320503331,441.1L530.1576609918579,421.25L534.7376017764618,437.7916666666667L539.8671354552183,427.8666666666667L544.9966691339748,427.8666666666667L550.6757957068837,417.94166666666666L555.8053293856402,427.8666666666667L560.7516654330126,431.175L566.7971872686899,411.325L572.2931162102146,421.25L577.0562546262029,434.48333333333335L582.3689859363435,424.55833333333334L587.1321243523316,434.48333333333335L592.6280532938564,421.25L597.3911917098445,434.48333333333335L602.7039230199852,424.55833333333334L608.0166543301258,424.55833333333334L612.962990377498,431.175L618.0925240562547,427.8666666666667L623.222057735011,427.8666666666667L629.2675795706883,411.325L634.0307179866766,434.48333333333335L639.160251665433,431.175L644.4729829755736,421.25L649.6025166543301,427.8666666666667L655.4648408586232,414.6333333333333L660.960769800148,421.25L666.0903034789045,427.8666666666667L672.3190229459659,408.01666666666665L677.2653589933382,431.175L682.9444855662472,417.94166666666666L688.6236121391562,417.94166666666666L694.119541080681,421.25L698.8826794966691,434.48333333333335L704.0122131754256,427.8666666666667L709.6913397483345,417.94166666666666L715.0040710584751,424.55833333333334L719.9504071058475,431.175L725.4463360473724,421.25L730.2094744633605,434.48333333333335L735.8886010362694,417.94166666666666L741.3845299777942,421.25L746.1476683937824,434.48333333333335L751.0940044411547,431.175L756.2235381199112,427.8666666666667L761.90266469282,417.94166666666666L767.3985936343449,421.25L771.7953367875647,441.1L777.840858623242,411.325L782.6039970392302,434.48333333333335L788.4663212435232,414.6333333333333L793.5958549222797,427.8666666666667L798.9085862324204,424.55833333333334L803.8549222797927,431.175L808.9844559585492,427.8666666666667L814.6635825314581,417.94166666666666L819.2435233160621,437.7916666666667L824.3730569948186,427.8666666666667L830.0521835677275,417.94166666666666L834.8153219837158,434.48333333333335L840.860843819393,411.325L845.6239822353812,434.48333333333335L850.7535159141377,427.8666666666667L856.2494448556624,421.25L861.5621761658031,424.55833333333334L867.0581051073278,421.25L872.1876387860843,431.175L877.8667653589933,414.6333333333333L882.8131014063656,434.48333333333335L888.1258327165062,421.25L892.8889711324944,434.48333333333335L898.0185048112509,427.8666666666667L903.5144337527756,421.25L908.6439674315321,427.8666666666667L913.7735011102886,427.8666666666667L918.9030347890451,427.8666666666667L924.582161361954,417.94166666666666L929.8948926720947,424.55833333333334L935.2076239822353,424.55833333333334L940.8867505551443,417.94166666666666L946.199481865285,424.55833333333334L951.3290155440415,427.8666666666667L956.0921539600296,434.48333333333335L961.9544781643227,414.6333333333333L966.5344189489267,437.7916666666667L971.6639526276831,427.8666666666667L976.4270910436713,434.48333333333335L982.1062176165802,417.94166666666666L986.8693560325685,434.48333333333335L992.3652849740932,421.25L997.4948186528497,427.8666666666667L1002.0747594374537,437.7916666666667L1007.7538860103626,417.94166666666666L1012.700222057735,431.175L1017.8297557364914,427.8666666666667L1022.5928941524796,434.48333333333335L1027.9056254626203,424.55833333333334L1032.6687638786084,434.48333333333335L1037.6150999259808,431.175L1043.1110288675054,421.25L1048.4237601776463,424.55833333333334L1053.5532938564027,427.8666666666667L1058.682827535159,427.8666666666667L1063.4459659511472,434.48333333333335L1068.941894892672,421.25L1074.621021465581,417.94166666666666L1080.1169504071058,421.25L1085.0632864544782,431.175L1090.742413027387,417.94166666666666L1095.6887490747595,431.175L1100.6350851221318,431.175L1105.581421169504,431.175L1111.4437453737971,414.6333333333333L1116.7564766839378,424.55833333333334L1121.8860103626944,427.8666666666667L1127.0155440414508,427.8666666666667L1131.961880088823,431.175L1137.4578090303478,421.25L1142.4041450777202,431.175L1148.083271650629,417.94166666666666L1153.7623982235382,421.25L1158.8919319022946,424.55833333333334L1164.2046632124352,424.55833333333334L1169.3341968911916,427.8666666666667L1175.0133234641007,417.94166666666666L1179.7764618800888,434.48333333333335L1185.2723908216135,421.25L1190.4019245003701,427.8666666666667L1195.1650629163582,434.48333333333335L1200.4777942264989,424.55833333333334L1205.7905255366395,424.55833333333334L1210.5536639526276,437.7916666666667L1215.5,427.8666666666667L1215.5,520.5Z" stroke="none" stroke-width="0" fill-opacity="0" fill="#ff0000"></path></g><g><path d="M225.5,520.5L225.5,520.5L244.00296076980015,520.5L244.00296076980015,520.5L244.18615840118431,520.5L244.18615840118431,520.5L244.18615840118431,520.5L262.3227239082161,520.5L262.3227239082161,520.5L262.3227239082161,520.5L262.3227239082161,520.5L262.3227239082161,520.5L279.9096965210955,520.5L279.9096965210955,520.5L279.9096965210955,520.5L279.9096965210955,520.5L279.9096965210955,520.5L297.86306439674314,520.5L297.86306439674314,520.5L297.86306439674314,520.5L297.86306439674314,520.5L297.86306439674314,520.5L316.3660251665433,520.5L316.3660251665433,520.5L316.3660251665433,520.5L316.3660251665433,520.5L316.3660251665433,520.5L333.58660251665435,520.5L335.6017764618801,520.5L335.7849740932642,520.5L335.7849740932642,520.5L339.63212435233163,520.5L345.31125092524053,520.5L353.73834196891187,520.5L355.9367135455218,520.5L361.4326424870466,520.5L366.74537379718726,520.5L372.2413027387121,520.5L377.73723168023685,520.5L383.2331606217616,520.5L388.54589193190225,186.35833333333335L393.8586232420429,186.35833333333335L399.5377498149519,186.35833333333335L404.85048112509253,186.35833333333335L410.5296076980014,186.35833333333335L415.4759437453738,186.35833333333335L421.7046632124352,186.35833333333335L426.6509992598076,186.35833333333335L431.9637305699482,186.35833333333335L436.5436713545522,186.35833333333335L442.5891931902295,186.35833333333335L447.53552923760174,186.35833333333335L452.84826054774237,186.35833333333335L457.24500370096223,186.35833333333335L463.2905255366395,186.35833333333335L468.60325684678014,186.35833333333335L473.9159881569208,186.35833333333335L478.8623242042931,186.35833333333335L484.1750555144337,186.35833333333335L489.12139156180604,186.35833333333335L494.06772760917835,186.35833333333335L499.380458919319,186.35833333333335L504.5099925980755,186.35833333333335L510.00592153960025,186.35833333333335L514.7690599555884,186.35833333333335L520.2649888971132,186.35833333333335L524.6617320503331,186.35833333333335L530.1576609918579,186.35833333333335L534.7376017764618,186.35833333333335L539.8671354552183,186.35833333333335L544.9966691339748,186.35833333333335L550.6757957068837,186.35833333333335L555.8053293856402,186.35833333333335L560.7516654330126,186.35833333333335L566.7971872686899,186.35833333333335L572.2931162102146,186.35833333333335L577.0562546262029,186.35833333333335L582.3689859363435,186.35833333333335L587.1321243523316,186.35833333333335L592.6280532938564,186.35833333333335L597.3911917098445,186.35833333333335L602.7039230199852,186.35833333333335L608.0166543301258,186.35833333333335L612.962990377498,186.35833333333335L618.0925240562547,186.35833333333335L623.222057735011,186.35833333333335L629.2675795706883,186.35833333333335L634.0307179866766,186.35833333333335L639.160251665433,186.35833333333335L644.4729829755736,186.35833333333335L649.6025166543301,186.35833333333335L655.4648408586232,186.35833333333335L660.960769800148,186.35833333333335L666.0903034789045,186.35833333333335L672.3190229459659,186.35833333333335L677.2653589933382,186.35833333333335L682.9444855662472,186.35833333333335L688.6236121391562,186.35833333333335L694.119541080681,186.35833333333335L698.8826794966691,186.35833333333335L704.0122131754256,186.35833333333335L709.6913397483345,186.35833333333335L715.0040710584751,186.35833333333335L719.9504071058475,186.35833333333335L725.4463360473724,186.35833333333335L730.2094744633605,186.35833333333335L735.8886010362694,186.35833333333335L741.3845299777942,186.35833333333335L746.1476683937824,186.35833333333335L751.0940044411547,186.35833333333335L756.2235381199112,186.35833333333335L761.90266469282,186.35833333333335L767.3985936343449,186.35833333333335L771.7953367875647,186.35833333333335L777.840858623242,186.35833333333335L782.6039970392302,186.35833333333335L788.4663212435232,186.35833333333335L793.5958549222797,186.35833333333335L798.9085862324204,186.35833333333335L803.8549222797927,186.35833333333335L808.9844559585492,186.35833333333335L814.6635825314581,186.35833333333335L819.2435233160621,186.35833333333335L824.3730569948186,186.35833333333335L830.0521835677275,186.35833333333335L834.8153219837158,186.35833333333335L840.860843819393,186.35833333333335L845.6239822353812,186.35833333333335L850.7535159141377,186.35833333333335L856.2494448556624,186.35833333333335L861.5621761658031,186.35833333333335L867.0581051073278,186.35833333333335L872.1876387860843,186.35833333333335L877.8667653589933,186.35833333333335L882.8131014063656,186.35833333333335L888.1258327165062,186.35833333333335L892.8889711324944,186.35833333333335L898.0185048112509,186.35833333333335L903.5144337527756,186.35833333333335L908.6439674315321,186.35833333333335L913.7735011102886,186.35833333333335L918.9030347890451,186.35833333333335L924.582161361954,186.35833333333335L929.8948926720947,186.35833333333335L935.2076239822353,186.35833333333335L940.8867505551443,186.35833333333335L946.199481865285,186.35833333333335L951.3290155440415,186.35833333333335L956.0921539600296,186.35833333333335L961.9544781643227,186.35833333333335L966.5344189489267,186.35833333333335L971.6639526276831,186.35833333333335L976.4270910436713,186.35833333333335L982.1062176165802,186.35833333333335L986.8693560325685,186.35833333333335L992.3652849740932,186.35833333333335L997.4948186528497,186.35833333333335L1002.0747594374537,186.35833333333335L1007.7538860103626,186.35833333333335L1012.700222057735,186.35833333333335L1017.8297557364914,186.35833333333335L1022.5928941524796,186.35833333333335L1027.9056254626203,186.35833333333335L1032.6687638786084,186.35833333333335L1037.6150999259808,186.35833333333335L1043.1110288675054,186.35833333333335L1048.4237601776463,186.35833333333335L1053.5532938564027,186.35833333333335L1058.682827535159,186.35833333333335L1063.4459659511472,186.35833333333335L1068.941894892672,186.35833333333335L1074.621021465581,186.35833333333335L1080.1169504071058,186.35833333333335L1085.0632864544782,186.35833333333335L1090.742413027387,186.35833333333335L1095.6887490747595,186.35833333333335L1100.6350851221318,186.35833333333335L1105.581421169504,186.35833333333335L1111.4437453737971,186.35833333333335L1116.7564766839378,186.35833333333335L1121.8860103626944,186.35833333333335L1127.0155440414508,186.35833333333335L1131.961880088823,186.35833333333335L1137.4578090303478,186.35833333333335L1142.4041450777202,186.35833333333335L1148.083271650629,186.35833333333335L1153.7623982235382,186.35833333333335L1158.8919319022946,186.35833333333335L1164.2046632124352,186.35833333333335L1169.3341968911916,186.35833333333335L1175.0133234641007,186.35833333333335L1179.7764618800888,186.35833333333335L1185.2723908216135,186.35833333333335L1190.4019245003701,186.35833333333335L1195.1650629163582,186.35833333333335L1200.4777942264989,186.35833333333335L1205.7905255366395,186.35833333333335L1210.5536639526276,186.35833333333335L1215.5,186.35833333333335L1215.5,520.5Z" stroke="none" stroke-width="0" fill-opacity="0.3" fill="#93c47d"></path></g></g><g><rect x="225" y="123" width="1" height="398" stroke="none" stroke-width="0" fill="#333333"></rect><rect x="225" y="520" width="991" height="1" stroke="none" stroke-width="0" fill="#333333"></rect></g><g><path d="M225.5,520.5L244.00296076980015,186.35833333333335L244.00296076980015,520.5L244.18615840118431,517.1916666666667L244.18615840118431,520.5L244.18615840118431,520.5L262.3227239082161,192.97500000000002L262.3227239082161,520.5L262.3227239082161,520.5L262.3227239082161,520.5L262.3227239082161,520.5L279.9096965210955,202.90000000000003L279.9096965210955,520.5L279.9096965210955,520.5L279.9096965210955,520.5L279.9096965210955,520.5L297.86306439674314,196.28333333333336L297.86306439674314,520.5L297.86306439674314,520.5L297.86306439674314,520.5L297.86306439674314,520.5L316.3660251665433,186.35833333333335L316.3660251665433,520.5L316.3660251665433,520.5L316.3660251665433,520.5L316.3660251665433,520.5L333.58660251665435,209.5166666666667L335.6017764618801,484.10833333333335L335.7849740932642,517.1916666666667L335.7849740932642,520.5L339.63212435233163,451.025L345.31125092524053,417.94166666666666L353.73834196891187,368.31666666666666L355.9367135455218,480.8L361.4326424870466,421.25L366.74537379718726,424.55833333333334L372.2413027387121,421.25L377.73723168023685,421.25L383.2331606217616,421.25L388.54589193190225,424.55833333333334L393.8586232420429,424.55833333333334L399.5377498149519,417.94166666666666L404.85048112509253,424.55833333333334L410.5296076980014,417.94166666666666L415.4759437453738,431.175L421.7046632124352,408.01666666666665L426.6509992598076,431.175L431.9637305699482,424.55833333333334L436.5436713545522,437.7916666666667L442.5891931902295,411.325L447.53552923760174,431.175L452.84826054774237,424.55833333333334L457.24500370096223,441.1L463.2905255366395,411.325L468.60325684678014,424.55833333333334L473.9159881569208,424.55833333333334L478.8623242042931,431.175L484.1750555144337,424.55833333333334L489.12139156180604,431.175L494.06772760917835,431.175L499.380458919319,424.55833333333334L504.5099925980755,431.175L510.00592153960025,417.94166666666666L514.7690599555884,434.48333333333335L520.2649888971132,421.25L524.6617320503331,441.1L530.1576609918579,421.25L534.7376017764618,437.7916666666667L539.8671354552183,427.8666666666667L544.9966691339748,427.8666666666667L550.6757957068837,417.94166666666666L555.8053293856402,427.8666666666667L560.7516654330126,431.175L566.7971872686899,411.325L572.2931162102146,421.25L577.0562546262029,434.48333333333335L582.3689859363435,424.55833333333334L587.1321243523316,434.48333333333335L592.6280532938564,421.25L597.3911917098445,434.48333333333335L602.7039230199852,424.55833333333334L608.0166543301258,424.55833333333334L612.962990377498,431.175L618.0925240562547,427.8666666666667L623.222057735011,427.8666666666667L629.2675795706883,411.325L634.0307179866766,434.48333333333335L639.160251665433,431.175L644.4729829755736,421.25L649.6025166543301,427.8666666666667L655.4648408586232,414.6333333333333L660.960769800148,421.25L666.0903034789045,427.8666666666667L672.3190229459659,408.01666666666665L677.2653589933382,431.175L682.9444855662472,417.94166666666666L688.6236121391562,417.94166666666666L694.119541080681,421.25L698.8826794966691,434.48333333333335L704.0122131754256,427.8666666666667L709.6913397483345,417.94166666666666L715.0040710584751,424.55833333333334L719.9504071058475,431.175L725.4463360473724,421.25L730.2094744633605,434.48333333333335L735.8886010362694,417.94166666666666L741.3845299777942,421.25L746.1476683937824,434.48333333333335L751.0940044411547,431.175L756.2235381199112,427.8666666666667L761.90266469282,417.94166666666666L767.3985936343449,421.25L771.7953367875647,441.1L777.840858623242,411.325L782.6039970392302,434.48333333333335L788.4663212435232,414.6333333333333L793.5958549222797,427.8666666666667L798.9085862324204,424.55833333333334L803.8549222797927,431.175L808.9844559585492,427.8666666666667L814.6635825314581,417.94166666666666L819.2435233160621,437.7916666666667L824.3730569948186,427.8666666666667L830.0521835677275,417.94166666666666L834.8153219837158,434.48333333333335L840.860843819393,411.325L845.6239822353812,434.48333333333335L850.7535159141377,427.8666666666667L856.2494448556624,421.25L861.5621761658031,424.55833333333334L867.0581051073278,421.25L872.1876387860843,431.175L877.8667653589933,414.6333333333333L882.8131014063656,434.48333333333335L888.1258327165062,421.25L892.8889711324944,434.48333333333335L898.0185048112509,427.8666666666667L903.5144337527756,421.25L908.6439674315321,427.8666666666667L913.7735011102886,427.8666666666667L918.9030347890451,427.8666666666667L924.582161361954,417.94166666666666L929.8948926720947,424.55833333333334L935.2076239822353,424.55833333333334L940.8867505551443,417.94166666666666L946.199481865285,424.55833333333334L951.3290155440415,427.8666666666667L956.0921539600296,434.48333333333335L961.9544781643227,414.6333333333333L966.5344189489267,437.7916666666667L971.6639526276831,427.8666666666667L976.4270910436713,434.48333333333335L982.1062176165802,417.94166666666666L986.8693560325685,434.48333333333335L992.3652849740932,421.25L997.4948186528497,427.8666666666667L1002.0747594374537,437.7916666666667L1007.7538860103626,417.94166666666666L1012.700222057735,431.175L1017.8297557364914,427.8666666666667L1022.5928941524796,434.48333333333335L1027.9056254626203,424.55833333333334L1032.6687638786084,434.48333333333335L1037.6150999259808,431.175L1043.1110288675054,421.25L1048.4237601776463,424.55833333333334L1053.5532938564027,427.8666666666667L1058.682827535159,427.8666666666667L1063.4459659511472,434.48333333333335L1068.941894892672,421.25L1074.621021465581,417.94166666666666L1080.1169504071058,421.25L1085.0632864544782,431.175L1090.742413027387,417.94166666666666L1095.6887490747595,431.175L1100.6350851221318,431.175L1105.581421169504,431.175L1111.4437453737971,414.6333333333333L1116.7564766839378,424.55833333333334L1121.8860103626944,427.8666666666667L1127.0155440414508,427.8666666666667L1131.961880088823,431.175L1137.4578090303478,421.25L1142.4041450777202,431.175L1148.083271650629,417.94166666666666L1153.7623982235382,421.25L1158.8919319022946,424.55833333333334L1164.2046632124352,424.55833333333334L1169.3341968911916,427.8666666666667L1175.0133234641007,417.94166666666666L1179.7764618800888,434.48333333333335L1185.2723908216135,421.25L1190.4019245003701,427.8666666666667L1195.1650629163582,434.48333333333335L1200.4777942264989,424.55833333333334L1205.7905255366395,424.55833333333334L1210.5536639526276,437.7916666666667L1215.5,427.8666666666667" stroke="#ff0000" stroke-width="1" fill-opacity="1" fill="none"></path><path d="M225.5,520.5L244.00296076980015,520.5L244.00296076980015,520.5L244.18615840118431,520.5L244.18615840118431,520.5L244.18615840118431,520.5L262.3227239082161,520.5L262.3227239082161,520.5L262.3227239082161,520.5L262.3227239082161,520.5L262.3227239082161,520.5L279.9096965210955,520.5L279.9096965210955,520.5L279.9096965210955,520.5L279.9096965210955,520.5L279.9096965210955,520.5L297.86306439674314,520.5L297.86306439674314,520.5L297.86306439674314,520.5L297.86306439674314,520.5L297.86306439674314,520.5L316.3660251665433,520.5L316.3660251665433,520.5L316.3660251665433,520.5L316.3660251665433,520.5L316.3660251665433,520.5L333.58660251665435,520.5L335.6017764618801,520.5L335.7849740932642,520.5L335.7849740932642,520.5L339.63212435233163,520.5L345.31125092524053,520.5L353.73834196891187,520.5L355.9367135455218,520.5L361.4326424870466,520.5L366.74537379718726,520.5L372.2413027387121,520.5L377.73723168023685,520.5L383.2331606217616,520.5L388.54589193190225,186.35833333333335L393.8586232420429,186.35833333333335L399.5377498149519,186.35833333333335L404.85048112509253,186.35833333333335L410.5296076980014,186.35833333333335L415.4759437453738,186.35833333333335L421.7046632124352,186.35833333333335L426.6509992598076,186.35833333333335L431.9637305699482,186.35833333333335L436.5436713545522,186.35833333333335L442.5891931902295,186.35833333333335L447.53552923760174,186.35833333333335L452.84826054774237,186.35833333333335L457.24500370096223,186.35833333333335L463.2905255366395,186.35833333333335L468.60325684678014,186.35833333333335L473.9159881569208,186.35833333333335L478.8623242042931,186.35833333333335L484.1750555144337,186.35833333333335L489.12139156180604,186.35833333333335L494.06772760917835,186.35833333333335L499.380458919319,186.35833333333335L504.5099925980755,186.35833333333335L510.00592153960025,186.35833333333335L514.7690599555884,186.35833333333335L520.2649888971132,186.35833333333335L524.6617320503331,186.35833333333335L530.1576609918579,186.35833333333335L534.7376017764618,186.35833333333335L539.8671354552183,186.35833333333335L544.9966691339748,186.35833333333335L550.6757957068837,186.35833333333335L555.8053293856402,186.35833333333335L560.7516654330126,186.35833333333335L566.7971872686899,186.35833333333335L572.2931162102146,186.35833333333335L577.0562546262029,186.35833333333335L582.3689859363435,186.35833333333335L587.1321243523316,186.35833333333335L592.6280532938564,186.35833333333335L597.3911917098445,186.35833333333335L602.7039230199852,186.35833333333335L608.0166543301258,186.35833333333335L612.962990377498,186.35833333333335L618.0925240562547,186.35833333333335L623.222057735011,186.35833333333335L629.2675795706883,186.35833333333335L634.0307179866766,186.35833333333335L639.160251665433,186.35833333333335L644.4729829755736,186.35833333333335L649.6025166543301,186.35833333333335L655.4648408586232,186.35833333333335L660.960769800148,186.35833333333335L666.0903034789045,186.35833333333335L672.3190229459659,186.35833333333335L677.2653589933382,186.35833333333335L682.9444855662472,186.35833333333335L688.6236121391562,186.35833333333335L694.119541080681,186.35833333333335L698.8826794966691,186.35833333333335L704.0122131754256,186.35833333333335L709.6913397483345,186.35833333333335L715.0040710584751,186.35833333333335L719.9504071058475,186.35833333333335L725.4463360473724,186.35833333333335L730.2094744633605,186.35833333333335L735.8886010362694,186.35833333333335L741.3845299777942,186.35833333333335L746.1476683937824,186.35833333333335L751.0940044411547,186.35833333333335L756.2235381199112,186.35833333333335L761.90266469282,186.35833333333335L767.3985936343449,186.35833333333335L771.7953367875647,186.35833333333335L777.840858623242,186.35833333333335L782.6039970392302,186.35833333333335L788.4663212435232,186.35833333333335L793.5958549222797,186.35833333333335L798.9085862324204,186.35833333333335L803.8549222797927,186.35833333333335L808.9844559585492,186.35833333333335L814.6635825314581,186.35833333333335L819.2435233160621,186.35833333333335L824.3730569948186,186.35833333333335L830.0521835677275,186.35833333333335L834.8153219837158,186.35833333333335L840.860843819393,186.35833333333335L845.6239822353812,186.35833333333335L850.7535159141377,186.35833333333335L856.2494448556624,186.35833333333335L861.5621761658031,186.35833333333335L867.0581051073278,186.35833333333335L872.1876387860843,186.35833333333335L877.8667653589933,186.35833333333335L882.8131014063656,186.35833333333335L888.1258327165062,186.35833333333335L892.8889711324944,186.35833333333335L898.0185048112509,186.35833333333335L903.5144337527756,186.35833333333335L908.6439674315321,186.35833333333335L913.7735011102886,186.35833333333335L918.9030347890451,186.35833333333335L924.582161361954,186.35833333333335L929.8948926720947,186.35833333333335L935.2076239822353,186.35833333333335L940.8867505551443,186.35833333333335L946.199481865285,186.35833333333335L951.3290155440415,186.35833333333335L956.0921539600296,186.35833333333335L961.9544781643227,186.35833333333335L966.5344189489267,186.35833333333335L971.6639526276831,186.35833333333335L976.4270910436713,186.35833333333335L982.1062176165802,186.35833333333335L986.8693560325685,186.35833333333335L992.3652849740932,186.35833333333335L997.4948186528497,186.35833333333335L1002.0747594374537,186.35833333333335L1007.7538860103626,186.35833333333335L1012.700222057735,186.35833333333335L1017.8297557364914,186.35833333333335L1022.5928941524796,186.35833333333335L1027.9056254626203,186.35833333333335L1032.6687638786084,186.35833333333335L1037.6150999259808,186.35833333333335L1043.1110288675054,186.35833333333335L1048.4237601776463,186.35833333333335L1053.5532938564027,186.35833333333335L1058.682827535159,186.35833333333335L1063.4459659511472,186.35833333333335L1068.941894892672,186.35833333333335L1074.621021465581,186.35833333333335L1080.1169504071058,186.35833333333335L1085.0632864544782,186.35833333333335L1090.742413027387,186.35833333333335L1095.6887490747595,186.35833333333335L1100.6350851221318,186.35833333333335L1105.581421169504,186.35833333333335L1111.4437453737971,186.35833333333335L1116.7564766839378,186.35833333333335L1121.8860103626944,186.35833333333335L1127.0155440414508,186.35833333333335L1131.961880088823,186.35833333333335L1137.4578090303478,186.35833333333335L1142.4041450777202,186.35833333333335L1148.083271650629,186.35833333333335L1153.7623982235382,186.35833333333335L1158.8919319022946,186.35833333333335L1164.2046632124352,186.35833333333335L1169.3341968911916,186.35833333333335L1175.0133234641007,186.35833333333335L1179.7764618800888,186.35833333333335L1185.2723908216135,186.35833333333335L1190.4019245003701,186.35833333333335L1195.1650629163582,186.35833333333335L1200.4777942264989,186.35833333333335L1205.7905255366395,186.35833333333335L1210.5536639526276,186.35833333333335L1215.5,186.35833333333335" stroke="#93c47d" stroke-width="1" fill-opacity="1" fill="none"></path></g></g><g></g><g><g><text text-anchor="middle" x="358.3182827535159" y="544.6" font-family="Arial" font-size="16" stroke="none" stroke-width="0" fill="#444444">1000</text></g><g><text text-anchor="middle" x="541.5159141376757" y="544.6" font-family="Arial" font-size="16" stroke="none" stroke-width="0" fill="#444444">2000</text></g><g><text text-anchor="middle" x="724.7135455218356" y="544.6" font-family="Arial" font-size="16" stroke="none" stroke-width="0" fill="#444444">3000</text></g><g><text text-anchor="middle" x="907.9111769059955" y="544.6" font-family="Arial" font-size="16" stroke="none" stroke-width="0" fill="#444444">4000</text></g><g><text text-anchor="middle" x="1091.1088082901554" y="544.6" font-family="Arial" font-size="16" stroke="none" stroke-width="0" fill="#444444">5000</text></g><g><text text-anchor="end" x="209" y="526.1" font-family="Arial" font-size="16" stroke="none" stroke-width="0" fill="#444444">0</text></g><g><text text-anchor="end" x="209" y="426.85" font-family="Arial" font-size="16" stroke="none" stroke-width="0" fill="#444444">30</text></g><g><text text-anchor="end" x="209" y="327.6" font-family="Arial" font-size="16" stroke="none" stroke-width="0" fill="#444444">60</text></g><g><text text-anchor="end" x="209" y="228.35" font-family="Arial" font-size="16" stroke="none" stroke-width="0" fill="#444444">90</text></g><g><text text-anchor="end" x="209" y="129.1" font-family="Arial" font-size="16" stroke="none" stroke-width="0" fill="#444444">120</text></g></g><g><rect x="225" y="133" width="142" height="16" stroke="none" stroke-width="0" fill-opacity="0" fill="#ffffff"></rect><g><rect x="225" y="133" width="53" height="16" stroke="none" stroke-width="0" fill-opacity="0" fill="#ffffff"></rect><g><g><text text-anchor="start" x="247" y="146.6" font-family="Arial" font-size="16" stroke="#ffffff" stroke-width="3" fill="#222222" aria-hidden="true">Darr</text><text text-anchor="start" x="247" y="146.6" font-family="Arial" font-size="16" stroke="none" stroke-width="0" fill="#222222">Darr</text></g></g><rect x="225" y="133" width="16" height="16" stroke="#ffffff" stroke-width="1" fill="#ff0000"></rect></g><g><rect x="304" y="133" width="63" height="16" stroke="none" stroke-width="0" fill-opacity="0" fill="#ffffff"></rect><g><g><text text-anchor="start" x="326" y="146.6" font-family="Arial" font-size="16" stroke="#ffffff" stroke-width="3" fill="#222222" aria-hidden="true">Fresh</text><text text-anchor="start" x="326" y="146.6" font-family="Arial" font-size="16" stroke="none" stroke-width="0" fill="#222222">Fresh</text></g></g><rect x="304" y="133" width="16" height="16" stroke="#ffffff" stroke-width="1" fill="#93c47d"></rect></g></g></g><g><g><text text-anchor="middle" x="720.5" y="601.1" font-family="Arial" font-size="16" font-style="italic" stroke="none" stroke-width="0" fill="#222222">Time</text></g></g><g></g></svg>